<mxfile host="app.diagrams.net" modified="2023-09-19T06:14:08.733Z" agent="Mozilla/5.0 (Windows NT 10.0; Win64; x64) AppleWebKit/537.36 (KHTML, like Gecko) Chrome/116.0.0.0 Safari/537.36" etag="MicOhhff7UVWXmC3rPjY" version="21.7.5" type="device">
  <diagram id="MOdm2e7NxSwdlngJ5OY0" name="Halaman-1">
    <mxGraphModel dx="1707" dy="1615" grid="1" gridSize="10" guides="1" tooltips="1" connect="1" arrows="1" fold="1" page="1" pageScale="1" pageWidth="827" pageHeight="1169" math="0" shadow="0">
      <root>
        <mxCell id="0" />
        <mxCell id="1" parent="0" />
        <mxCell id="-AoV8SRWGJAxWm-tqiDU-1" value="" style="rounded=0;whiteSpace=wrap;html=1;fillColor=#dae8fc;strokeColor=#6c8ebf;" parent="1" vertex="1">
          <mxGeometry x="-10" y="-10" width="600" height="1080" as="geometry" />
        </mxCell>
        <mxCell id="-AoV8SRWGJAxWm-tqiDU-2" value="" style="rounded=0;whiteSpace=wrap;html=1;" parent="1" vertex="1">
          <mxGeometry y="10" width="580" height="68" as="geometry" />
        </mxCell>
        <mxCell id="-AoV8SRWGJAxWm-tqiDU-3" value="" style="shape=image;verticalLabelPosition=bottom;labelBackgroundColor=default;verticalAlign=top;aspect=fixed;imageAspect=0;image=data:image/png,iVBORw0KGgoAAAANSUhEUgAAAOEAAADhCAYAAAA+s9J6AAAACXBIWXMAAAsTAAALEwEAmpwYAAAgAElEQVR4nO2de4xc133fh7sAUdjIBIWCOrJU2AIi0xVFxQ+YCq20pbYw2GWXcYtGRqQ/6Eg0iTiOayJUYMsKY9GCTPUfQ7ALMYSNBIIUVCIUSA4hIjGsVd0FwUgTEKtHVUrWSqHWdBeVtq2zErUxZ+4tvmd/Z/ibM+d577mvmfnjx13OzuPOvedzf+/fae06ONdK03TTRAo7B1OKTCdJ8k/Wf3Hpl965ePGf/Xxt7Z+vXXxvy5sXLnz8taWl3zx58uTvPPHEE/uOHz9+59GjR48cOHDgx7fccstrN91008q1130sufrqqy+22+0upNVq9UjE/9vt9nv4+4e2XL+M58/MzDx1xx13fPvIkSN/+OCDD96O9z516tQsPguCz8Xn4zjefW/9n/aS9H04PjrOsVkTuw7OtYoW22dOACz2AvehwyLHogdogAyAAZBt27bNt1qtxU2bNp1rtVrLrVZrtdVqrZGsAzACLSFJPSSRcNJ7rNH7Qpbps/CZZySoOB4c18svvzwHQHG8aZpuJigrByVtOIQqjBMIi7ugWLCboVGgXc6dO7fl8ccf37F///5Du3btepgWv4RLgpUGwFWUqMAuA04cNzQnvge+z6hoyl0lQucjE02YEzqu5aBFYPbNzs5+c2pqSmg40m5rtMirhs1XEjpeqUGXoDVxI4GZDG2O70vaslRNuasG0MQ2TScQZoQPWgELESYczDnSctKU5CZk1UDFBLNH2lKAeejQofuhKeFXkpYsXEPuqgFEEwirMWGmsMiw2KRPNzc3d5w03SotzFECzlcA5RpuQDgfsALgT8J0JX9yAuJBuxacaEIPjYcoJhYWwIM5Bg1QNniIin765tn0M3OfS2/ddzD93S/dJeTLf/xAX+Rj+Dueh+fjdSVqSWj/VQCJ84TzBUuhKA25q+HmKAdyYo5qtB78PGg9mFowNVut1gqZmb2Yi7fdbqefuPFfCXDu/c5fpN99+K+TP//B36ZPv7Cadt5M08UVfzl7IU1P/32aLryul/lzl9JHn3k9vf+RHydHj/9V+kf3fU98LkDFcRQApgjw4PxJkxXndQLj3BCQEwiZ1kOgAeYmgg/tdvtJCqpE0XgcNgkawHnxrQ3hMEEAYVaRMAI8nUgw8TyIBBTHxeGMBCPO3zLOJ84rrApYFzG1466Ga8UJhKT5sDgQaIgVyYQ5CDMR2k1qNglbDNBiAakDlIOJ48f3wPeJAKQwWXGekfaIrRl31QCqCYQBF0xGN5FWQFCB5fAywwcNwqErGziXhMCogxICUxbfM4J2XMJ5f/nll+cokBMt1VE1WBNN6Gl2InBA1SqrdIcOXkww2WC+Pfajl3pcy1UNW1FAcigh0JT4/jlM1y78bRQGwG+kIM5YacZxM0c3IziA+klcdIKvl8W3g3n22I9eEsA1CTyTuZoFRtW/BJA4Lzg/GWDswW9EVBUwxtSMVUM2gZAuBC4qzB5KMaxk0XwI/wM8bmZWDVCdYJRA4icCPDhfGTXjEsxUBMgogDPSII68JpR+H0szBGk+mFmIZo4qeCbJCyMHEj5kBnO1J9MbCODESPxXDZtNWqMMH0LiVNUSlGZAsht3c+nnVQ1FUzUj9yFxPnFeM1TjnEErFlyJvCZq1bCNDYQAEH4feupC4ZMmJ+AbF61XFowQGcwJNFUTwIggGvzFvFqxauBGGkLABz+CTM/lEPgQUEBaYZxMziphlIGcUL9x06ZN59BeBStnlGAcBQin4MAj5RBqemIRAL6J5is+tWHSjE+/sBoCo9CKaBOLkdKoGr6RgBAVF0z7rfrCh2TzBL58mjEWiPPMTA0oAoC/uITrnlcrVg1gkyGcQtoB2o+aZ720H0qv4PNNzM76majzBCMCOJ4lckIrbt68+RRiAHnSGRMIw0/aNCJlVOfpbXqinKxOJWSjJDFBXKDkP1IbASbqKiKolOTPVBg+0YSeJwp3OyTdqdxszecCwd/ovJkm45pqaKpWXCDf09NfBIgrV1111SNwT7L6ihNz1H2SNlPwZdkn6Y4EMWo6F1fSpOoFOk4SE8R5ZqJ6lsN1EUGFeZrVTywbRHxmqynmJ8wN6mp3AShab6D9zl6YANj0COo804q4rr5BmzwJ/gmECoCIflHNp7PN6Oorr+x3NADCqrXCOEts83SeRVFxnX38RKwbip4G+4kTTcjSD4h+UQDGx/frkfaTUvliHHeJDeICaUXPdMY6yt6wjrI0EI+zOSommyEAgxPo0fGQIPJJvt8EwDEwT+dJK3pGUHtYR1hPdQSxlhCy6hdn1wPMkqdfWJXBlwmEYwbiApW/eXRpiOgpAjZZIqfjBOEUOt6p88EVgElgjsD0VMxPk1S+CCdSjJ84T+JhngLEZawvmhwe5CeOA4SiAoYAhAa03dnQ48fNT77Aawmh7MCXIies1U34xLciz0cREC68nopRGz4BG6wzSuxPIOQpCOwK5BEBFXM5AwGsBEIJG35HqZycWiaH89ZRENzCcZbRzlUUiPc/8mMf03QN6y20wmZUNeEUK0FzakBL8r0W5qjUePgdQYNIYwIrESTH6YZXGIxFgfjoM6/7aMQVrLuqQawUQhyAbw0oFgQLwIQCWDiIsiYVGiTCOMBaCW4ksteyaSB+wl5lIzQiA7ES07RKCEUQhkxQqwbEIoBDb6h+8QWwMBCxOAFf4OiGxonUik0BcZ7EYY0IjYh1SMGa0kGsDEIWBbX6gDiBhvKzUPiiQyhNtIxTxRopIwziKnaUCm2HaiqEIhHvEwWFZlFSEHkBjAai1H4e5VOmiy73+pM75Nqk5yFJTvE+fjlvtWkgfsZuqYj0BUAMySM2EkI5hInygMaLH5gDLBVCAIgIYiB0fdja7fZ7v/SrH3qnfeU1q7985TU/zSp4fYjgM1V5/6988B+5+HanNC1qOk/i8NdRWXMudJhUoyBEyRBKh1ytSFIDFgBfbggRtsccUk/4BHhY3B++cfb/XLd7388/tffw/96+9/DPtu89fH773sNL2/cefmX73sMvkTy/fe/hs8pPKS9p5BX2U8qSIudJ8Jk/2/j8P/m/n7ztq2tb5/avSMGxQa69+XNrv/JrH7voghHnoMj+zPnqNKLowECtaVkglgohvhiNojBeYNjuBWrAXBAGACg2zMRixgJn0HHwpHCofKDTiQqeFkIJIAS/CwD3HFjqCwMSMNp2pnr/FVcWPo91vjofMcU6JRC9Uhd5ACwLQpELpG6IriMIo3ZB1ALCABO0B/igaQwaDxrutEOeJTmraEQXjDZAB0AUEG7Ad0aRJa4ZbdcLQZomVtbM+4EIt+HJkDao2kKIDwKAtL+7sR0J+RwWBdVJryoIZf7PR/tBg2xoGwGghE+alwDsme17D/+1Is8w4SCeNcBn0nbnfTShNIm3zu1/fuueA0+TnKSffRAhMKNNIKL6p2hteLrAWlOII4/YxbqlxuBCzNKyNOE0dcSv2hYwEvEGAHtMKtOErigo/L4N7TcAoNR8UrNJCFUQOYAqfDqN1vfxLHLe5A9qIASAJ0g2YNz4m4DRdPOEbyXL8prWfTFP4qis6Q+Q8vUPswBYKIQyEkqbb/Y8StHKADAIQiwyRx6w177ymlQCSAv8vCeEPyDhMEoQY0DIf/ZBlMfIIAR8xxQ5KbUiIqs63xBahPz3ws3ShdcrK3ETgZqQFqg6QThNkdAli1+hFmPr4IsNYBLTDIUGvPF373lHBjzYwudmqAnAE0wkkKEaUQel+jftcwjCMwTh0a17DtzN5Cg9fgbpEB2EcpAWrBgIzlnT6kzn/Yq+ReoC69lnXk1dIBRtSRg/ZwNQaUcqC8AgCF0JXmjAyxAOBGK4FtRpP4D38Pa9h79HPx+mx1SNaPILbb6hLVLaP0YNhH+wbW7f5yH4nTTi07SxjjN/CM1IG+r0ioJxvkAQHW1QXaxn3xrTyiFESZrLD0TS1MMErQxCDy2YXDd7e2oAUGrBZy3wSQClSAhN2lBNW2SJkA78rpijRwHfDXu+sBtCIALMk9fs+Hc/CdxUNcHNiw3cakSgZuF160237x/6lrZVCeFmqogx1oRSxUVVACYxtOAHPvqpPoDMD5RpCB2AHD4uKoBSE6opCl3eMCuUQkgLaiGEkFkKbXjGZ9KdTqBdYkdQFwoM1EAsozIEiCEVNVVAOIW8CuUDezWJhAaDCADRuuMwQ1MNgNIH5GaoDcCHDQCaTFFdYj8rnC8xCE9Kc1SBUJqkUhsG7fUoBSZqbNN0vkAIXYEarG/KH3px4QIwKoQoS6PdkYzj6Q1T0coG0Aoh7ty2yhipBQ2RUB6I0QVgeCCGB2R8AXzeIkEakvmEJwm2uw0mqQjQZNl0tcic4nyBZqljitsa1nmeQu9CIGSF2cbNOXFHrAmAVgjhx1iSuMnWPQeEFlRMUJ6K4NFQ7g9y0SXsOYBq7SgX+XfX86xJfgbh0xxEGaAhTShNUpE7pOT9KsG4rnR6WEGkG3Bj/MNbzcXeouMC6z1khGLREE69eeHCx2mDTq0Dj2S3BYiyAXSCaFpIqJnc8AVFIEYHoKoNn/EUtVzNBZ/6eabXcAh5quI8JeN1IPJ0xdGBvCGeP7f/eZinEEAJQUcGQWmFUaYymuIfXm0u0sCeF2eymqXRIfQwQ0U+yeEHJnWAEL4LcpemRfThG2clhOcNAKodEap25GD61IuqAD5rEFU7qjlGnqIQ0odwGERd8v4EK2sbrjfdc2AJJXsEo7Hwu4hAzXyB2tC2FrDesXV3lm6LqBACQESLqComMfkDbG+IugCYZPAHe8wUXWJRUF7lIhc875IwJe1N9aImUWHWwWsCcUmpmBmE8DKIKoxcZH3pyaFSN1bmRq1Qxvxw7F2yFgrUhjB5LZvQiCT+448/viNk05noEEId016BXVthtsUMTeoGoaVMTSTnmSnKi7KfZYt9ydA9wdMWprI11TTVia7rwgWhNEcvV8wMa0IuvLBbFa4ppbl6gt5LFH7bAjjUfREVxPkCTVJH2qKL9R9S5K2TVh4t6JgT4zJDYwEU433E79DYpvxgu93uEoTSFOXVMBJCNQBigvAHjoS9CmVo25POLxyoqvEA0AQh9x2PDviNpBFt3RdkkhpvhJ1mmaXwgdcwFiPrfoh5IJw6d+7cFtqwJTQaGluDRYXQ1GeGQm0yRdWKmGcUc9Rlkj6jQPhtRTiUPkD6RFSf16YozCDazFIpZhA3tKE2RoCoYxFb1y0UbJZaLKQemoDzaMNW1tI0VzCmRDMyKoSm9IQBQg6CqdhapxmfJbhOGED8tkE7unoRTT6iqhEvd9Tr5DKcLpNUAjhY+D23/3kK0gzdoHGTK2r/yPmCzVJLkGYVQZqs23RngXAzmxWjNUMtSfnYAOaFcEBs5iiS9BTUkDDpIqM8HTDQXgRTVo6OgNDoi1cUINVKGp7Q/4Ej+W/KOWojpOqMGRyTTDngdzymSWOogZmB3CLlF/H/p20tUEX1IZ7++8qS+CJIQyMxpguFUOmU79rmxJSkBaNCaElRdFGwzZL0apUMX+gD81yU0D0fYSj+j2giFj4L+Dxv6cb3AVENFA101iPFghuCHOrEpqwl6khGOaSKwchBPKErdyMQT1QBYadgbQgQLYUc3dnZ2W+GDhHOogmnHSMLbcGYIgCMCiEEGhyavN1u9xfktTd/Tleqxgc19QGUCx2ahBa4zJvZpD+ZDWBITcSisUuG/KMaoJG+H2m8y9CRthMaHUUHmnmlWrdCwkjaW+3G7xd+b9uz/0YI1Z0eqwrCTnVBmoSNTJwqDEK0cdD+8d3AFqXGQIj3xHfAjQTNnijW1rQscRClv9df9K5pZQ4ZgBNRWaktpSkrBzHpRD4HhQVXXHO9iOrmGfbLjqkrtOIGiAP1poBv654DH2UQHh1FCOfdJW3r4CN0kncrJCXhqA+1dUg0CcI+iBYINc2ylzVgDgB94AydyB3zGHpknj4tIZRasE4QdqrrtMD3XQodIOwNIXzBmZmZpwxaMEEI11IZ0zgIuSbkA5IYhAOTzKTZVxCAdRGhESmKekz6gxJCCWIdIFyoLmXR3bFjh3cXfgiEUxQRXTFdHIMWjFmaViSA6nsOQMh8QW6Ksgjohhb0mF5dlIYqFUQx2HjDJBUQSgDrBGGnYG1o6TkVXRYUKY0HIUxRy+xQsQPti28NwdZrMITcJ5RVMs7R8g4tmBy79+uXOk8+kkCO3fv19Nc/8msczMrAwnF8/4/vTJ976FgCwe8e2vCMNEctEKZVQrhQnTZcR6TUt9XJB8Jpqo4xFWlzLaiOqChyZmhU81N9TIGQB2GGAGTBmJ5pkf/0vz+VpMsvDgkef+w79ye/d9tvJ//yhutLgQ6f86Vb/n362Lf+ZOO4FhdSVfC4pZWnh1YmEZi5bIp+kEF4dx0g7FTrGy6CG59IqRNC5D1oN901ky9IEdFegyFMPCHs+4CXOxKcpmhy9uR/3YBu6axOun0ol872sPilprz79/cl//Hf/hsJg8/WZgOP43V4Pd4H74f3FdC98txl4DrziUbE36AVTYsMoxA1EAoQxwXChdet2lDsAuwTKW15NuyaIqI9lhcsA8LShEVHuTl6nifipVggFNqNYJM/3cK15dLZnngM4LzynNBQ0qSFQIvy//chg2y8tsfea0PwNz18gyB25hMymYcgBGRUHcMBlBD+QSCESVNH6Tu04TL4cWlDK4RsQ0+tL3jrvoMYa2eDr5Eg4qYCExsV/zI6qpqgKoRUFTMEITSRRgv2FPGDUwKlgsohM2vcUAiFmfpb//om7SIjCI+aIKShwZVD2ClYGwJyy2S+LjosXL6hFUKEWbE7jUd1DIet22QIoQGpkbNv1iHxzSKkIhqqiqFg2QdCXwClNg2VsiH8YCCESdEQFj0Gw1ZF4zM02AbhNJKOVKI29OZodDRowcZCKEvWdHe0jR2XNoIzgz7hhnYsAcK0IAjT2BCiiqZOEHZK0Iamxl8ENF0mqRFCOJTUrrTuGGM/MuaopZ9Q5MZY/SaVqV1OVwRAmNUUzQeeHsKUSSYIKTBTewgXCtSGeG/LWBTniMSWbZCvIS0hSqcsGq/REJqq5BmEz+jmt3hCqAIY2xz1e5/4EH40B4RpWVKkNoRYAjSLtg1HtRDCkXziiSf2GfaT8E1LVAFirs/zgPB5pWXorDRPTXNVkP9jUc68EMYRN4Qb/19cEPlEw+JaRyeFUra2kSscQwgX7IXda7Y5pVoI4UhauiV80xJVgJjrMwMglBu3QBOet5WroUpGA2GXpBoQAyBEjtGwsLqYyo0aUrWdCamLOkK4UGGABhVnpgCNFkI2zHfIvKIJaqGmaBkQ5v5cG4RoC6JATL97XhnxlxgT9cPar6sBsVczCJ0Je7G3O8zSjfYm2WkvxuaTeV4rCDslmKSWpt9FCtB4QTiN3IahWFuE7zOaokWCGOVzXSPweUc865I31X72KFHfDYCwHCD9fML+Y4aE/QCMbDS+HI+fjBuEp+1zSldhkur8wlZAsXaimKLdGoEY5XMdEIZKDxUsBn+wWymIvppwUBtGKTKvGsKF1yuroFkHVzq/sKXbZZdGGQ5Vf9DegnnhKwLEKJ8bEUJRrzlQdrYhoRD2SoRQzR0OgGgJ0DQKwk4JARpDzhDjL87QaMQpG4SbKUGvqxUVZVxkinYbDmGvQAhFRwTBpQJgC86UB+IGhKk3hAQi0i0TCC85IbSYpCvUdT9thBBa0JKg75Ip2q0ZhL2aQCh8IxEN1YPjA1vVELpE9homTdaECxWapOisUCeyDUCIhCJFRXu6BUZlaiEQdmsMYS8DhMZJadB+/Z5B/eIfBQiFRjz3+EOZzdM6QNgpIUDjkbjXQjiFlnyKig6lJmjb424AhD7PbQqEoiUJWk4KWohkG1G/J9AMTW9kICQQZS8igjZoDoaG5GKKqI4LhLeaE/crNPpiSgfhNNvgRX1hD4XNAaZod8QgFP6Q0jbEm3FNife88NUTQh2QipjK3eoC4cLrlU3rlhvITA9BiAJTw2RtYXLRLqu+MpoQDkc1fSOcLrG9R1JrCA1SdwhPF9zsC/FNVfQhhLOI3WV0/uCnb57Fgr2UEcAiIezVCMKsILpeP4HwzeaZpBCTa7N58+ZTPDjT4ludaUrVhBZkVTLdGgFYRwglSCFgTiB8czT9Qsv8mUVeR9pS8oNLuqiopz+oA3AcIQzVjrbnJg01R5Nxh3DB7hcus222p1rSH6SJaqs6CGmkoQ2qboMgVI+pCJ8wlr84gfDNkcwXrn3xi1+Us2cEhKJUzTDiXnZNSH+w23AA+fEWCSGHsV4ATgIzaZnBGUMJWxetguQXbkBISXptfpBNVDOBNe4QquDULyUxKBvjEMc8OtqpdhKb2EZN1pG2WJJ+zTFLJhTCIgGM4Q9qITTtWY9BumLxXs4Luhpzy4TQd+RFWiiEbHo37e+YWrbLHgu/8I/u+57JJF2VA6BabONPXb1oD93CrHVJB1gIhEmdIcTNxhLREvNiUCFDjbpFVcnEgs8ssSHcqJ4R5WzPPXTMqAUhNBplLCCcP3cpxQBpk18oi7lbcA6PHj16xDTKgu0zEQJhr4kQ4ntaRhQMQamMrtBBUj8AY0O4uCDK1DzPmRgBgW3Jq4avU31wRgwGRmaixUYbDiXpscurUi/qY46WAWBMEBNVGwZ0CfC+wbwQlgNgTAgD+wxhotZJC3ZKCs4YTPOuHIXYQmQUmxqa5sl4dE5UCWFeQIdeF6gNxXliHfRlQJjWAsKNjvuQ81Q7LdipdjBwAu4QIW0hQkPlaqkjMmpayGX7gjFg9B2F7yXKWMMsEJYHYEQIQ7QgNYRXDlynRh0V4A5KUEBI4yyG/EElMuoDYV20oA1Er9cggofv72OaIhBhgMoEXDVmaGRz1Hc/RUynrlNEtFOTCKkcd9FiNaNDEKJczTFZra6maF5Y+yAiMIWIninkDkHv3MBWZG4IbcGcRkDo2ERUnC9oAGwrXVcN2Km2fK2/kWjr5MmTH6Fx97b0xLhB2D9mfH+6EcE8N/qFoqveL3EfCl5tITQBiJsWzDDAV0cfsFMyhKY0BbgDfy0UkhoglDWj4wrhwHEDRIt5aoIwGVUIkRO0mZ91136dGqQpBiA0bH/WpZpR0wL19QebDGFPEzXV79X4nfvVGaO2AE11AMaAcHFB7HfftChopyIIIYZztXTfffdtaz3wwANzmmnbonuCcoR8gaoLdZS0YGL7DnL3XlOgxjBndGQhtOxRIfzAJkF4uuBcISC3QoiWCkML0zob9GtbqKMEoQ3EHiXytRu/iJH39q2qRwpC22j8OkdCOxVoQguEy3fdddfNrd27d39ZU7zNp227FumomKKJS9MjZ2rZn1z6hUVIGlWo1rOIoAzOT9MgPF2CJjQk7Jexm1Xrhhtu+JYOQsyVkVFBX00x4hB2HcGZlPmF9QUwL4SOWtGmBWU6JEVDaOjOWRVKcMuWLd/Xbf6CO1oECJMRgRABqkuwDCx+oZhNGhnCtBAp0BRtmj/YKQlCgwW1KpTgVVdd9YgOQpSsTSDsgyggBJgA0bZ9GrU51RO+vBDS9G0TgDgvTQSwDAgNOeY1oQQxfk031oJtiZ1HG44chMwkddWR1hPAnCPwbfWiTTVFOyVAaOhTXW+320+2qG5U3dSRbwY6bhDaQOy6UhU5AzTFApjHH3RowSabop0KIaTmCVE3OoHQ7RsKCKU2hLlu8g0zasPiAcxpitq0IMytpmrBTgkQGrpyusTfEIQi+jfmmlD9njxAI0r5sE2cKWdo6TGUMFQDYVZT1KN38LEfvdRYLdipEEJRMkrm6HoBEFYNUKHa0JEzFOdRk5gvR9vFNkU781YAm5gb7NTDHN2AUDiGGgjHODBj04aXNL5hL2D0RbUQFmCGNt0X7FQL4bpQgpSiWFMDMw4Ix0kbmkAU2pBOrjFIwxL4zdOCjkJtCL5/07Vgp8IUhQjMsIqZxDNPOIFwcIeqSxiIZTNLRe6wahAL8APR1Fs1PJ2GQyiUoKlszVIxM44QJjqTVEZKqcXJZJaK88m20q6/FvRIR0DwvZscEe3UpWKGCrhXA2pHxxlCI4gOs7Q6EEMjop4A1m2Ib6fmEBqqrJa3ze37vAlCUfUdITAziiB2dSCycjYriCx1UT8t6DnGsMnlaZ2KuigM83iWtu3Zf6PsJ1zRLZhACE19hcmIgngpMFral9KCNYEAuoIwcoDTKERDOyVDqDuXSE/wzvrlnBDaZs2MIoRaEHG+HEn8voiqmo0NZqo1QwlU3xmiTU/Kd+oDYdKH0DLoKYsWHGdt2C/w9gURLUFknsaHMcD8tLUmqQCOkh/YqX7GzKIY9CT+0c8dFYuJpq2Z4NMBOC4QmkDkGtFrTwvs9kRBm+IBZNuX2XZPGhcAO9VNW0u8IGRzR3014LiYpFwbWjUi5RC9YISJSv2I2TWjyQ9k25eFjK9//xVXjjSAnWrnjp4R/GECsGEMfsImcCeBAI6DNuQgXjJpRARrkO7xXfQQaCgEb/ra0ddclQCStpMC8DCSIkTzQTCSoQkTtDvNnMA9uBeFaUMYtheFL4CXxlAbWkEkS+KSRx7R6DeiBhW+I/UpXoaSCwIxTNsh0onX+fp7quB4sUBHLQjTqdFeFGioF7sygUTqrrftV++j/QYW35hA6NSGlEOU+x4GaURXqgCAYa4Nftr2ysgio1AP2qn5vvVonsD+oC2QaNqfEAl7BqHL/Lw0piDaIBw4HzEhLFrGQQN2SoLQMO6wh5I17JTdwk6hhw4dul+3XTburpZyLRuA4wahKOSeQNg8OV3dTr3r+/fvPyS2y8Y/R44c+UPDnvWJsme9DkLjnX9MAjQuv7AvJk2Y1W/LK7bPHRdNuFDdnvVrKJRJ03QaEE6fOnVqVjP2UE1TmPw+qwk2BtowN4SijG3prOg9pAhmcADHV+BDHrv36yKQg5/jDq6bUygAABoUSURBVOF8NekJPLaMQpk0TacA4dSbFy58XNPOJJ5M2xxPIIwAoglCAcVGlFPUlCIKCiCRN7RtxOkjeD3eh6U8+mmPCYRpVZFRUbKGzESappsEhLRl9jm1sVezb72q5Zx+0BhoQm8QHRAODn4iIKGxAA9SFHgeBFChygZaTQr+j8flc/opDVmfquYZl18Uz51owktVREa7iIwiKCo14Sb8Z2Zm5inFLxQQom1FE3zwMUXHDUIVxG6wJtwARD8SUUI5KPqcoTu5L14/7hCeLiEoY+gjXJ+dnf0mgqJ9CBEmpQipbou0HgvOTCDMACF6DSEZIVQfi1Ff6oSwKVtdd5oZlBFboiEeI83RTYiQnjx58ndox94hk5QFZyYQ+kEoBOcM8KGG1DYeUYHQrA3jweiEEMeL40Y8YFRhnK8mKJPKwm1oQQ7hNGpIqZB7CEI2g9RlftbVHC2j438APvjRDD5ntFPpoog1vdv8/Fee8wrsSBhRQTNqMM4X7A+aBv6iTBSVMsReH0LhF1L5Wk+FEAXInj5gUyDM+j7yAmr/TppPdE9Q0bZxL0NVkNBle1hwgLKCaZXQ3CSKuam1bWRgnC/YHzTsSdjDhDW4gEMQwkmEs6jbJk0m7TOAWEcI88CnhVDCB7PdV/PpROxviGimy5TMt+OTiKJmOT6pGaV70mQYF6pr5F3HXCfpDw5AiAefeOKJfboZpLKtibbPzgth0yKkuovYhw9mJxYl3fVyJ9mRanDMn8kKn/A70VmR9xg5jE31GRcKhNDWvoTgJ1XKTOkgnHr55ZfnaOjTUDE3m8gdCmBTITReQNkVgUXoMWEtWNiuTnlB5HlBUZkT8zghKE5uIozzBfuDhrH3kCXEXxh3AxBuosqZRU0oXaQqDEn7UYVwSGSDM4OvMGEJ/Cwgqol5kbwv8nhxPnBe6Dyl4w5hS3+eerKH0AghegspXzg0kRtvwGbO+NSQ2iCsGkT1opieMwAfTPKi4dOMRgz1D4cARMCnpGMW5wfnqc4wLlSXH1zFiFGkBI0QImJjyxeyOlITbLrHbCCWCaPr4gw9F98VoXksKkNPWGZBNPTo0aO2PSyE9Kex+YE4BCACPa7609tvv/0XsZuCcb5w3nD+6gbjfDV7EfYHO3F/cAhCmS+kmTNDqQo2lVs3yiIrhEWDGXSBKAQvvicWUdYC6g989FPpJ2/7qvHvn/nMZ5I0TXtf+9rXLrneizaU8QFx6G+IuNre+7Of/WwXx4HjMT0H3wPfJ8t5wPmjWUXy3I48hNfqb9hdmKJvvPHG+xTmhiAU2vCOO+74tpKqkPkuPgax7hDqtJz6WB88LBI5mImlGoLlwzfOikX7G7cfSbfuOWB83kMPPXQJi/+dS2kCTeR63+CRiMsvigCP7T2RK3zrrbfEzQDHY3oevge+D74Xvl+eaCoGR0ntWAWQCxX2D1IT75QTQpaq0NWRqq1NrkFPZUEYYmoKkdoOCwLg4W6N7auymmUcvu17D4uf195sBvmv/tuZXwBAKTt27HAC45FD7ANoK0mT1/O11177R/r87g9/+EMjhPge/HvlgRHnF0DifFcB5HxFQ53g4lH/4CYfCKdeW1r6TVNrE+uqcM2cKQNCE2xa+CR4UuNhmpyhqiEzfFLwf9tC5QBCoJFcfqdI5kdKReAmQJq4S2Ks7sH30H2/PDBK+fTNs+m93/mL0jRkkRBCDIG7RI439IYQT56bmzuuGXmhM0kvVQChVcvpwMPvErwYEU4TfHyRXnGN2R+TpigXaCaXJmbJ/GEQPVMRzBTu/ryX/hw/8X8ThPgetu8ZA8YWpTkkkLi2sYEs2hSlfSp10mWtS14QCr/QYJKaEvcxATRBGGxq4nfcMBCtipVacMCXkIi/Y3q17j1geuogxGMA0ZX8R9WLrgnYJxWBiCw+B/BxwWMmkxjfwwRhETC2CEhcN0z/jgVk0aaoJUG/QqbotDeEePLaxfe2aExSASFtFuPjB8bSgi5/T0Q0qdJfgIcTEjOtAA1l03wMQCF4num9EIhhEHZVEG3+mTGZ/8pzzoFR8nMB3bvd9AIXPG4LELkgVGGMmfK49rqPiRu/3BEqa0dH0aao4fgxyuKMyRS1QTjFRiHqEvd8RD7XhhKkrBpQB6HxpHKNB1Mg65Rr78XAAhQm+HwgRFpCgbDvl0kQbdFK3T6HMFNtz4WWk+YngfcqyQv46UqXhEBoC0jFkFv3HZTVOd4assJa0TVdgt4HQqENWYAmtQwG1kHYKxJADh4uSMwLbDIhIbi7K4sxyQKhNAkVc3QIxGPHjv2D63jhA7qKspGrQ+CHQSjhe+GdS+nf4Weapm/bigd8IYRkPb+tCEDWbMAvZFGtFQ2BcJNlOndqyBkWCqCEL1ZwhQcerpu9Pd158Lvp7DceDdGGRghti1GBsKuDUIJ48OBBp0Z0iAj4KGboqxJAXwhjaUGcX5xnnG9b4KqVMaijg7HoWTKWgEyyZcuW76u1okEQIkBz/PjxO00zSZVJbN2iAJR+QJ4KFlXaV14jktBYELvvOTEgtiQ7tKGPJgyAUNWEQyCiqiUrgPAvdQAWASHE5gvivKrneufB74rHcT1iXFdZocP9xqK1oMUa6z744INWU9QJoZxJSiZpzzKhmwdookZC2fZiuS8Q7rwIGszc+adDi4EL7ta2xcS0YVEQDsFoKytzpSJkBJQFYqJrQldeFOfTds5333NCXJc8JXK6bd0AYkUVMrheS3K2aC4IMQuDxuS70hXRI6FS++UJtsiUggu8UG2I94zkE6rmqBZE+HQhIylk8McA4KsqiHl9QldEFH8POf8zBCSuX55IKwImRZmjjrSEtmMiC4QCRNi0VNSdeOxXwQHLpQEN1ehe4GHRQKOFXHhVG9qCCPQZZUDYVXKIzu8vi7LxWgN83CSdh+A5WaOjLi2I85j3WvyG4zNsgnVURHTUpgXBi8sXDIFQREo1Rd39D2TT2FQITSDaKmFEsj003SDBy3qhdWLrgoBkTVEg2GJIUVi1YUCQJpGmqM78lCYo/S4ghCbMkye0HU+oFtztkCxAYj3F9gUtSkIM9zUl57NCuAnpCgwtNV10pg11oPkCmIYAiDsszMY8d1mX2LQh+YZGCE1mFNNUTgjxPJiirgJv3TUhjfs2QOTAMZGPCXPUFADSpGa8I6I4f0Vdm9lvPCquv2/aA+sqpkY0fQ5iKIil+LLlDSGrJ9VqQ3xBZVdfG3BaCOED0t3FueAQ4i4SPh9tiACCKUADOE0RP0TwfCCUJmiOiLBokyKfUJieb633TkE4iIAUzzF9Dr6HDUJbICW2FtxtgBHrweecYH3l9REdM2SEFuRzRaNBqCTvfX1DbwhlE60LQNz1dGmFIsV0LGxxaiG0LU7eT2jyAal8LW8FkIisXriY/Iz7gAzAV1lQJnHcbLQQ2jRRmddp58HvemlFBGvyaERHRFQm56eKgNDpGyJvSL5hkDYEuADYdfKwGMrQfqqYNJpS2DwEoctvkTk8HYBULeME8Lf/xTbX+ApxY2u3211oVUDH/UJoQSqRM36WrpXJB0Kct7Kv1e57TnilOABSAXlB6Qs6I6J5IBS9hjSRTXuxWRVNEISuTnYshCouqC3AorT4DEHoU0PJGmuT0ADMVz5xY7Lye4eSZ2/7gtgmzaURsUgIfOEnQs68+Mr/MtxUXTWzfQhtlS+xg2W7HSIrclw3QKy3yNUxkMUQXzAThLsOzrVg65I21G6vjfHvCoS9vGZoHQE0aIgBCH38FCqsTmQAxrc65oGduwSAS/v+U1+gFT1eK4rD4QNS/+J7Lo2L72GD0LXgywRx5s4/FRBCXBox1CzFcy1FI3y7s+IglNqQzSfV+oasw8IJIYC1LYK8OaaiAIRQwt7YVeFKcfQ1zXUfS5Cj8w3A/Nktt6UqgBA8Bu3o8R6y/M/pAli+50Ci3vUeZYA4S1qQi6sgP1KnRA95wVBfMA+EkM2WKhpxkX32oACoKMa2QRha6VIWgLZghU/pWhbZ+qsfTGF66gDkIEJLuiAM+VyfkjUfP6zogNpOBUCI61qi6NtXG1reZ/UrX/nKZ0N9wbwQipQF5maYtCErZzNCCC1ou/vDDCobQFcXBQR3V4d26EMYq3UHpqYJvIwgegmCKz6F2zgfPt+1KKtmhpmhXPC4zTfH+nNB6EhJJBhlaGvaLQxCUI8KcU3Tb//gNEGavshdjEx35arMUJ9giqPDvg+iK01RFITQlrG6TRwaf0Ab2uptpeD8FnHj3KkBkIut/hTr0GaGOoIxcoOX6SogFNqQ+g21QRqazKYt6kZiHykNE4S6tpc6aEGf+TIcwlgzV3g01AWhZ4DGS2zpCR2IPv5h7JvrjEELcm1oC5Ih5WBL4FsadrvoFwxJzEeHEEKtTurEbgGhrCulSpoBjYi8oLFCo92uXTDGMWNmqI1J/u5byeErMipqEjJDbaao2FeED3S2fR5uhj4AhoAYM0gz66EFXdoQ6zBDfagIxlCr0lSlEOIAKEjjbZbKYUym6FxVKQnb4rGF6Q0QOiOHuMOirOzqq6++iBA3flIRtTVqCU1nEhtUWGyYN4pILD4H+UgUBdjSIq7IqAlE280nVinbbACA0IY2q0Q1ST3MUDk7JrMZGhPCTbgb0FbbXdPF5+1Nrqho2QleKTafxrIYtQ297G/GgAXKyX56Mf1/P3n73Vchsq6TqmVCuul9tFoCANVRhxBTcbhvUCY0bRHL1ZhxmKEqhLZjwuRsNUBj8avFvhI+DbulQYi7walTp2YNexsOlbThp80frMIUhdhSCraqEUdzry0400XFCsA7v9Z94Pw/vPf7kLe6yVcPHjz4P33zeD6QAmwAB+i5LLz4qnHOqW9QRqcJbQEuPKdMLbiTic0vlBA6StPQK3jONke0EghRSYMDgnq25Q55Et80qKmqekOI7SJ5aAVjS5NlQXb/8qm/OQ3oVn6RzmHWK+6u8LMBZY7ZMgMC05OBdx6Cgm5ACe1ogtBx47GKbWZM3nzhbEYAoQ1NVgnWo0dSnnfMRwGwDyEgIpBym6VXXXXVI5Y7uCjUBoS2fQ+qghBiWzyOIIVRG1rMXMz6/B/QfgAP0WZE2nAeASbVdeaGENqOA8ghtHXThwZlpFhHg0S4yc4EmKEqhLaUkaNDQlwvrO9YZqgWwgggTkNNazYZ7UMo/cM6Jei52BaQh3kWPPTppptuWgFw0IIYh4DaQ8CIx3zmjvqIrBXlEErNaBsdmQVAV0F3Xn9wJiOAPol7hx8Y3QwtCkIxJpGS+MsmbWfrmKgiP6iaOrYFnUUbOhbmOkxPDiF+Qjvaxk2ghE0V03NlYy/Xgi5/0LYJTFYtCMk7a2ZnRgB98oWOTp6lPKVpQRDmBVF2Wtxwww3fcrXIVNWJ7RJbKNuxOI3BGcsdOIFfiBYxDiE0IaUutAC+ec+3hsQEIu7uP3n73XcBHwF4HlDaRu1n8QddNaR5XI3ZnAD6QGiRdaznLB0SlUAoBXd2qi3tNg1CW4AmQ87Q2VFxyy23vIbADMxQaY4+/Xcv/hfTuTu4c0YLIR43gS79QgkiILRp2qz5QVt5WJ6AzEwOMzQnhF2sY9co+1pCCLUN+zkUxDpA6NKGiLCFRkod1fyr0Hw8MPPAAw8g76r1nZ868CUthHjc9BkyRSFNUYjp/W2DnVwQmqKPebTgTAQAM0IoqmKK8APLghAyheJWS6CmthDiguWoqdRCaAG7C80H+AAhIqXQjqbPfvXuI1oI8bjLL5QQ2lITIfWiKoQmsztrS9pMJAAzQrhMxdm5ytKqhnATFtX+/fsPUf4waQqEPh0Vvu1MHkELNPX+rUxTwDQ1lQHCv9MBKMVW5SHTFK5Bv1lTExxEqRGlD12VH7gzO4Sru3fv/nLe4uxaQChH6fsGauoEoStSahsFqBObX/ihLdcvy4Q9IqOmc2XyBz38wh7yjjJCattANYs/yAXnTUqec78zIoCBEK777KbUJAgFiDC12u32ky7/sE4QQrCoYrb6WKKHazBJASL5g90Qf9DDLxSla5iwRkUAvZilalJiTULYGRlACaFHz2MX6zR2Qr4OEEKmWduTEUQsgqrBU8XVmIsL69v4aithA3wI0JA/mIT4gz5+IQoDMOrQNmM0T6lajML72QI0IBfHteyxuaHTowihEESafECsqog7S5DGI1rqY5ImgOQnb7/7lyZ/EGMNbQBKMYw/FCMP0a1hG6mfxxTNe81mv/Fo1EBMKIBYlydPnvxI0YGYyiGUpW1N04iuRtWQMRCW6pmurY3J5Q/6+IW2UrisVTKxzNCZigEsOhVRJwg3vfHGG++jGlNT61N/UVQNX4hZ6mPK+WwpbRKXP+iTL8x7/PI7SMH/scjrrAGvsG/LXVhNaGYIy/hQ2fpEOUQniHUxTX1m0Pj4h77zSEP9QR+/0CY+pqjcuBM3JLkBax0BnKH3dGzDLfaOyDuoKSqEZX84NCJOgGU7biE4kVXMH9WJa46lxzhEZ6dBHn/Q4RemeUxR01jDPNdmpiAAXRvVyO2s77rrrpvRdFAVgAMQVvHh9LmbfTQiJK/ZE0tc5iQWdGyT9D//1n8IgtDiF2Y2RU1aJWtJWlEAbncPXeYaMHpXRKMglII7kS+IOMFVQ+jjH/oEaorwB7P6ha6bhu37hm4EWlQaYsYvD4ggzDmst6o14ACENRGvqGkdGn/lXTyPdgkdDOzrD2bxC137D7q0dkgku0gAr3VbFyIPWGUQptYQSr/Ut/Oi6jEYvntWmNqeXGMB8/iDoX6hqVbU9xh93YQiE/EfcN/QKk1DNAJCliDdjISpD4hV7Nqris/od0vENPHZvyHUH5SC17ne21Ro4DvW3ncSQpEBmLalh5FrQErE1wrAukHIZRqlQ1RrWvuib9eoezm9W2eS+ozJD/UHQ/xCU+0rjte1uH2tkaIA3Opxk8D6wTrKum3ZOEMoQEQRLXVfmMYoDiyIqvKJ+FxXyoE0zkBrE8RnIWUBUIqPJtNpQpeG9i2kiA3gDL2f5x4fa2w6Wu00YBMgFH4iconUj7hUZ/PUJ5FPqYtE1Ya2hDJG2+eB0LY5jKkVyyeH6brhFdWKtN1vuzmYn8tl9QOONIRSMHcFSVXfURlVRU+xUDwjkYlv9LFICNWgUazNPovSftf65Va7CMAgBVHUYKaxhJBkigVsnH4i7uZVaEWfiKlur/uY6QnfNIUKoI+JZ2tXKqIEbYb2kHCUn/W7RLA+KABT9XodSQj7ARvyE41zTbng7lm2r+hTG8pBdAHg2z0RUjUT8vk+AbAiRlHs9Pf9RBH27OzsN+vu/40ChEJgZmAQK/mJXpumlF1p45Nf4yC4wI2drJfRWt8SOpOJX5T22+oX+exXwNShBnSsIOQjFSmNseIDI/ydMk1Un8XNq2psAZE/u+W2IAjxfFexti+AplREEdrvk7d91be4XQRfEP2sa/5vHCCETGE6GbSiT7kbX1RldWX4mFMyQGLTnjG7KHw+zwZgbO03Q0n3gK3FRfAF152GMdUy/zcuEPZhhFakjUrXfE3UsvxFn4gjVdVYK2hiNPXi/X2rYXQ1obHh2+nv90nttwrrp+nab+QglF0gcMqxd5xvBJVrhiI1I0D3iO4JMGKkK2xpCby/D4A4Xn6Diml6BqYcUhIR+YT2g/UzKgCODIQqjLhLIlLmO3CYL9CifEYsYp86UdwQbOViOUYeivf1MUFxnBLAmKZnBrMzpeu3gog4wddo03PkIZQgQuQWbWSiBsGIRVIEjLadYjkotufkGP4rtJurHlQCGAs+vIcMuIS0brU2/PtlmJ516v2bQJjhJMBxh4kaErjhCzJ2cTgWpEfVv1Wy7EXh+30lNLFMTpi+PqZ4S2N6Iu1AZWcjY3qOhSY0mahI8pOJukj+ordmjG2q+jQE2yTD1mheAlMxBnhItwSanCldjzXAh5vmqPl9Yw0hkymYNPAXUdhLMAZpRghyWPCr8gKJ18fUhnm1IADMogGl5pQ5xwxaL5Wab9vcvs9TxUvlc18mEBYIIoloHKbyt6UsOwpDsOBgbmUFMg+IaqOvTwOvSaC5fAGU0EUAT2i+Vqu1CAtlVIMuPjJOmlCVaZS/YX8MLAJKawQFcFTBgsSCDsk9ZgURW6BJbYifli3RcmlA1UfETSeDqanCt4KAGSySc+fObRnloMsEwgCfEQEACuCcy2KmqoJIoCxJwyK2gZkVRFnKZitRCwWQQ4e/y2G/oXNSTZoPATIEXNAnOq6aL1VknDWhTqZhFiG1gZpE8hvX8mhHKTDZsJjlvBnVhMX/Q6OmeD4gzPI6CaAKHG4cuIFkNDG1Wg9WBkx/VDWNQ7QzDZQJhIMnRN6Zp7FYYCqhq5/SG6u+5XAhMGCxY9G7qmVMEjppG4KbAYJLEra8KRONwJJYgskpK1zI5JxovgmE2XcaPnXq1Ozc3Nxx0o4rWdIcIyxdMjXPSV8PgS8Cb6L10okmjOo3QjuiggMLjapxlmKZrA2TfnQTVS3wp2FuUpQTKYaJ1ksn5mgp0VUsPGayrtDCNO6E22BJpMbDjUcm1ZnGm6rDlgppA2VywvJrSFEEgCQz0h0I6sBsJS25SGM4mgammNdCfjA0/SK+D1I5sAJgDUw0XjqBsI5ASihhjkFLom4VmgLBCeZPrtECrxOUXMuJaCaAw3Hj+PE9aHLZxMxMi9WEExs+XxWOFN3fhekK7QEtAhMWGgVmLEL3WPQQmLRk1i6SLGUwcROK4nYJdgEWaeQlyoOK98dn7tix45FDhw7dDw2O48LxAToWVJmsi3Rijo6aCChJNks4Yc5CoHmk3HfffduQ2L5hzxd2QzNt27Zt/pevvOan7Xb7vXa7LaEUgv/j8Q9tuX55y5Yt30fgCAJthvcAYFJgNkPWLr4nzEocA0G3mYE3gS8tZ038f3xjBRzyfviWAAAAAElFTkSuQmCC;" parent="1" vertex="1">
          <mxGeometry x="30" y="19" width="50" height="50" as="geometry" />
        </mxCell>
        <mxCell id="-AoV8SRWGJAxWm-tqiDU-5" value="Quraisyi&lt;br&gt;&lt;div style=&quot;&quot;&gt;&lt;span style=&quot;background-color: initial;&quot;&gt;Front&amp;nbsp; end designer&lt;/span&gt;&lt;/div&gt;" style="rounded=0;whiteSpace=wrap;html=1;align=left;strokeColor=none;fontFamily=Comic Sans MS;" parent="1" vertex="1">
          <mxGeometry x="90" y="24" width="120" height="40" as="geometry" />
        </mxCell>
        <mxCell id="-AoV8SRWGJAxWm-tqiDU-6" value="Usia : 24 tahun&lt;br style=&quot;font-size: 9px;&quot;&gt;Availability : Full Time&lt;br style=&quot;font-size: 9px;&quot;&gt;Pengalaman : 2&amp;nbsp;" style="rounded=0;whiteSpace=wrap;html=1;align=left;strokeColor=none;fontStyle=0;fontFamily=Comic Sans MS;fontSize=9;" parent="1" vertex="1">
          <mxGeometry x="210" y="26" width="110" height="36" as="geometry" />
        </mxCell>
        <mxCell id="-AoV8SRWGJAxWm-tqiDU-19" value="&lt;font face=&quot;Lucida Console&quot; style=&quot;font-size: 12px;&quot;&gt;Quraisyi&lt;/font&gt;" style="html=1;shadow=0;dashed=0;fillColor=#343A40;strokeColor=none;fontSize=8;fontColor=#ffffff;align=left;spacing=15;" parent="1" vertex="1">
          <mxGeometry x="-1" y="90" width="580" height="30" as="geometry" />
        </mxCell>
        <mxCell id="-AoV8SRWGJAxWm-tqiDU-20" value="Home" style="fillColor=none;strokeColor=none;fontSize=7;fontColor=#ffffff;align=center;" parent="-AoV8SRWGJAxWm-tqiDU-19" vertex="1">
          <mxGeometry width="40" height="20" relative="1" as="geometry">
            <mxPoint x="127" y="5" as="offset" />
          </mxGeometry>
        </mxCell>
        <mxCell id="-AoV8SRWGJAxWm-tqiDU-21" value="Pendidikan" style="fillColor=none;strokeColor=none;fontSize=8;fontColor=#9A9DA0;align=center;" parent="-AoV8SRWGJAxWm-tqiDU-19" vertex="1">
          <mxGeometry width="50" height="20" relative="1" as="geometry">
            <mxPoint x="171" y="4" as="offset" />
          </mxGeometry>
        </mxCell>
        <mxCell id="-AoV8SRWGJAxWm-tqiDU-22" value="Pengalaman" style="fillColor=none;strokeColor=none;fontSize=8;fontColor=#9A9DA0;align=center;spacingRight=0;" parent="-AoV8SRWGJAxWm-tqiDU-19" vertex="1">
          <mxGeometry width="60" height="20" relative="1" as="geometry">
            <mxPoint x="227" y="5" as="offset" />
          </mxGeometry>
        </mxCell>
        <mxCell id="-AoV8SRWGJAxWm-tqiDU-23" value="Keahlian" style="fillColor=none;strokeColor=none;fontSize=8;fontColor=#9A9DA0;align=center;" parent="-AoV8SRWGJAxWm-tqiDU-19" vertex="1">
          <mxGeometry width="50" height="20" relative="1" as="geometry">
            <mxPoint x="290" y="5" as="offset" />
          </mxGeometry>
        </mxCell>
        <mxCell id="-AoV8SRWGJAxWm-tqiDU-24" value="Search" style="html=1;shadow=0;dashed=0;shape=mxgraph.bootstrap.rrect;rSize=5;fontSize=8;fontColor=#1CA5B8;strokeColor=#1CA5B8;fillColor=none;" parent="-AoV8SRWGJAxWm-tqiDU-19" vertex="1">
          <mxGeometry x="1" width="30" height="20" relative="1" as="geometry">
            <mxPoint x="-52" y="5" as="offset" />
          </mxGeometry>
        </mxCell>
        <mxCell id="-AoV8SRWGJAxWm-tqiDU-25" value="Search" style="html=1;shadow=0;dashed=0;shape=mxgraph.bootstrap.rrect;rSize=5;fontSize=8;fontColor=#6C767D;strokeColor=#CED4DA;fillColor=#ffffff;align=left;spacing=10;" parent="-AoV8SRWGJAxWm-tqiDU-19" vertex="1">
          <mxGeometry x="1" width="90" height="20" relative="1" as="geometry">
            <mxPoint x="-148" y="5" as="offset" />
          </mxGeometry>
        </mxCell>
        <mxCell id="Qqs0DQ55uYX1ZCEMWNZK-1" value="Portofolio" style="fillColor=none;strokeColor=none;fontSize=8;fontColor=#9A9DA0;align=center;spacingRight=0;" parent="-AoV8SRWGJAxWm-tqiDU-19" vertex="1">
          <mxGeometry x="338" y="4.999999999999773" width="60" height="20" as="geometry" />
        </mxCell>
        <mxCell id="Qqs0DQ55uYX1ZCEMWNZK-2" value="" style="rounded=1;whiteSpace=wrap;html=1;labelBackgroundColor=#000000;fillColor=#99CCFF;" parent="1" vertex="1">
          <mxGeometry y="140" width="580" height="150" as="geometry" />
        </mxCell>
        <mxCell id="Qqs0DQ55uYX1ZCEMWNZK-4" value="Hi I&#39;m Quraisyi&lt;br style=&quot;font-size: 20px;&quot;&gt;&lt;div style=&quot;font-size: 20px;&quot;&gt;&lt;span style=&quot;background-color: initial; font-size: 20px;&quot;&gt;Front end designer&amp;nbsp;&lt;/span&gt;&lt;/div&gt;" style="rounded=1;whiteSpace=wrap;html=1;align=left;strokeColor=none;fontSize=20;fillColor=#99CCFF;fontFamily=Comic Sans MS;" parent="1" vertex="1">
          <mxGeometry x="45" y="170" width="210" height="30" as="geometry" />
        </mxCell>
        <mxCell id="Qqs0DQ55uYX1ZCEMWNZK-5" value="" style="shape=image;verticalLabelPosition=bottom;labelBackgroundColor=default;verticalAlign=top;aspect=fixed;imageAspect=0;image=data:image/png,iVBORw0KGgoAAAANSUhEUgAAAR0AAAEdCAYAAAAxarN7AAAAAXNSR0IArs4c6QAAIABJREFUeF7sfQecXkW5/jMzp31lezY9pEASIBSBRLpUERBBUBDbvWIBQeyiIKIR7F6Vi4AiYOVevSA2/tIRUalCQgsgkEISUrd/+33fKVP+v3fObghNAgmbze4cXLObnO+cmWdmn987b3leBnc5BBwCDoEhRIAN4bvcqxwCDgGHABzpuE3gEHAIDCkCjnSGFG73MoeAQ8CRjtsDDgGHwJAi4EhnSOF2L3MIOAQc6bg94BBwCAwpAo50hhRu9zKHgEPAkY7bAw4Bh8CQIuBIZ0jhdi9zCDgEHOm4PeAQcAgMKQKOdIYUbvcyh4BDwJGO2wMOAYfAkCLgSGdI4XYvcwg4BBzpuD3gEHAIDCkCjnSGFG73MoeAQ8CRjtsDDgGHwJAi4EhnSOF2L3MIOAQc6bg94BBwCAwpAo50hhRu9zKHgEPAkY7bAw4Bh8CQIuBIZ0jhdi9zCDgEHOm4PeAQcAgMKQKOdIYUbvcyh4BDwJGO2wMOAYfAkCLgSGdI4XYvcwg4BBzpuD3gEHAIDCkCjnSGFG73MoeAQ8CRjtsDDgGHwJAi4EhnSOF2L3MIOAQc6bg94BBwCAwpAo50hhRu9zKHgEPAkY7bAw4Bh8CQIuBIZ0jhdi9zCDgEHOm4PeAQcAgMKQKOdIYUbvcyh4BDwJGO2wMOAYfAkCLgSGdI4XYvcwg4BBzpuD3gEHAIDCkCjnSGFG73MoeAQ8CRjtsDDgGHwJAi4EhnSOEeeS878USIZNXsYhLzMvd8wdJMmMBXqUnrqhhX//rXZfHIm7Wb0eYg4Ehnc9AbfZ9le+21l9egOktlFuylWXqEyuIDw6Cwg2AYAwNmjAHAIYTIUimfkVL+DR7/bTmp/X3OY+tr8wE9+mBzM94YAUc6bj+8IgK77TauNJE3HQRkx8k0OSyAafeYKXNuuJQZPI9DaAOjcz7hnMOSD2MQYYAsy3Q9y3q8Yuudkovv33j/03cAIHZy1yhEwJHOKFz0TZnyiXvt1dRvOo9k0CeINN1TazWVKeOHviBzBlorGKbBOMsJxgjQZmLENfR3RECcQxoFzhmUNuCGQ0LEPCjcIHn4jesX/uv+TRmLu2dkIeBIZ2St5+bOhh03b/vJaZq9h0F/CFrOFEZDGAkOBs4YQBaNGSAbAEprcOHBgNt304bKjRwGbTTCMESmUjDDwDJtyScxGlL4nSzwv8ur0YU3PP10srkDd5/fdhBwpLPtrNXrOtKDp02LglJ2eoGrrzGji+R60UQU1kNDRGMskeTMonPrhr5lLCcYrTd8P3jECoLAHrXiOEaWSXgmpCeB+RqZktCcoy7ZDazY+O5bH1jS+7pO0D182CDgSGfYLMXWG8ghe0zfPdDmMt3fO7dc8AQ3RCoahnM6K1nrZpBg6E9jlD1CDZINEQ6RC30JIeD7vv0+TVNLOHSf4B6QEYMZQBhIOp4ZBsNDExtxp2/8E69/bNmarYeCe/NQIeBIZ6iQHqbvOXbejBOSWv37ATNTmUrhM5MfkegkxQaOShB29M9ZN3R+yq0cIhkimMHv6b4syyClfNGMmSLvcW4Rkc+HcwGtBZTwkADXGcM/cNOilV3DFCo3rC2EgCOdLQTktviYg98w7eCySa6HVAVhFHw6PpG/xnqEGRSRA1juHB44WhHBULSKLJ2NrR+ydohs6IvupfsGiYq+J+uHiIi+rFWkGTzuwfMCSGNQTWMgDC67buGzp7vI1ra4mzZ9zI50Nh2rEXXnm/feaaaXJHd6WU+7GDhCeYxbxy9ZMYYIhw1YMANWDQFA5DLo01FKWRKhPwetILJ86Hv6ou89z7N/EhklmbLOaMY4cRs8Q38ahIEHxTQyhqQmiu+74f6nfzuiwHaTeR4CjnRG6YY48g3Tr/Z1cqKn0gEEcsvEkgJZMkQMA0eq3MeTE4klHkMk81yO3wudyUQ09EV/T4REvh1r9YDDC3z7J9MGAtzGvNKkjjCKkKgMvdJ7FoVojnMsj9yN6Uhn5K7ty87siN22PzRk6Z+FrEc2MjUYozIGXAwei3TufwH5XzaKXNkzlaWj50W0iGToCLWxc5kIh76e+zeOTErEaQKyrojgCn5gn19PYkB4iBOtRUPLp6974KmLRuHSjIopO9IZFcv8/Ekes9eMa0x/1zuLgkFZEqEM4vwoRYl8WilokCOY/DvCfuUZOPlFlg6RDt1PRENfg0evQaIZjGhFUWTvI2vHZLlzOdEZGEWxyNoxAuVSOSejOIMQHtIgWiEKzXN/f9fD60bh8oz4KTvSGfFL/PwJHrHbuBJX5olQZ5OLoYc0k2CgKFKekQOmwFjut7GVCoZDU6aOoQRjilZ5ljB8z4cQPpTSkFkKbXInsc1MpmiWJTPiFTkQqQK4qmLs2Hbs+6b9Maa9DY8+8gj+ee+DgIlgjIDSilIQIYUHr7H5rdfe+fj1o2x5RsV0HemMimV+bpIn7rfLW7PuVX/knAktKMtYQSsP3ATWIslkHX6Qh73J/6I0y49CFHECg+dzeMxDvVaHJzx7fMqyBF6kMGvmbCx69En4XoQsI9JSEL5BJmuYM2cHHHvsvnjDXnvZMgrODeJU4fvfvRwPP7gCCkRiRDwacb2GsRO2+/Gv7nycIlnuGmEIONIZYQv6CtNhx+4x49JQVT+ayRQSBuTCESyAkoDPObSWMFznx5yMyIG8PikEI8ewByjy5ZAjOQVjKTzf4KBD9sNBh+yNMeMm4qtf+ipWr+pBFHFMnDgee+y1G/bcc1dMnTYJhQKDyvJjmbHHNw//+PsjuOjCq8C9EhTVaQkPghFdeQ96s1bOveaa/ATorpGDgCOdkbOWrziTU/fay1+vex5UtY6d/SAAHWa0ymy+DLfnJw1Kv6Fjkh8UkWX0vQL36MjFIAyDlCn8gGHChBbMfeMuOPyw/TFmbDO4UDBaoVpNsPyZlWhqakF7exuCkHxCEkpn4BSah2fD7pTGQ0eqFSsq+NynvwmNCMY6qJkdC/eLMW9r2eGavzz07CtOzN2wTSHgSGebWq7NG+yx+89uMJV4ua/6myn8rbkHphkYlzAqgeAZWtuacOyxb8fChY/ivnsXohCVrV9GmwTlcoB99tkDBx60D2bOnIowoJB4lltHJkUQFawPKIlT6/OhsDodoyRlOkc+JB3ZeAQlJYz1HflYvTrGWZ/9FjLpQ1FiomGIfA91xWGi5gP+dP+iOzdv1u7Tww0BRzrDbUVex/EcvNesMc0qWcbSvhITHrTxbATJ96hsoRcnHH8kTjjhWFCw/Oxzvorurk5sN2U65syZg7l77oJJ241FsexByVpuqVBRqDLWt7NBHofqJ8iiIR+0zevJK9LzSJiG1gPV6CSLwXz09jB87GNfQZz4eV2WJktHQ/MQJmw8/g8PPP6H1xES9+itgIAjna0A+tZ65Zv3mD2xIGuLfVWLNGOQhiPkAlL14uR3H43jTzgMniBiMOjo6ILvByg0NCHKS6+sRcNFHpFi9iiUZyJTvg0Vb9rol70Gi0HzZELhUeZxnrMDCsGDfEakscOQ1EOc8dGvolKlf6OQvQcjM0gWwISt77lu4aJfby283HtfHwQc6bw+uA7Lpx43b5cpWbXrqSKSUJOwFhVyZlUc9ua9ccqH3oFCRJYLHbOEzUYmC0UpCqnT8YkqxQMQb1Do3KqOUnEoz305sEWhg9spF/aigk66yEdEz/LoyEW3MhIBoxotD2kS4YzT56PSpyBt3ZcAafgor4AsaDzpzw88ds2wBNMN6jUj4EjnNUO37X3wuDftMiVZu+bpRp8FFLnSzKAYSXzzm+di4uQGpHEvClFonce+F4AiXLksBZFIrnCR+2no+ETHqByDQdGujRVI8wJRymfOc3ZI0Ivuo2dTwSgYWUsDpPPRr6BSUciMhKBjlZTQXohUNL7lhoeeuHnbQ9qN+N8h4EhnFO2PE/bbaWra1/1kZLJAkqHiaRxx+Fx86CMngbGqzdkhxzIdgaQkS4Xl+YKaxLcoATC1jmE6HjGQWmAuTUHJhZRUSNaPjUAZAc4CpInG0qUrsGzZMvi+h1mzd8B206cgjXsgPLKe6NjVhDPP+DI6uupWVRDMh9Aaxo9U6hV3/fOCpx4fRUs0KqbqSGdULHM+yWP2nTUprXQtLikeWuuF13DBVz+FWTtOAONVKCr+JHU/HUB4BetQ7ujsQCo1mhpLaGwIIdMYHlWSDwh7Dbhw8h4PQkJSWo0JsXRxNy7/0f9h1coupDqzuT9R4ONtb3sT3nnSYeDoBwPlB5Xx2c9+DStXdcHYcLpAaBUFsbSzJZhz990r66NoiUbFVB3pjIplzid57N7Tx9X66ksbwQvkpwmKMX78o68hKlIEKoOmSnIVoKfP4JabbscDCxags6sb9VqGceOa8Z53H4s3vnFXmBfk6+VNZ8j+kTbs7Qcl/OHam/Gb/70BTY2tSKRCpb/P5ukIrnD5lV9HucghpYbnteJLX/ovPP74SnCP6rQMZKrACs03/XHh0iNH0fKMmqk60hk1Sw289YBdW7Ku3mcamWkwporGVoXLrvgujKzC8ylULZAmAhecfyEefuQpeL5AVCiBSYH+agWHHLoLPvaJUyxxWDnTvP+DdTpTmJtCWxT5Iqdzkkg8u3Itxk+YAjrK3Xbr7bjl5jswdcoYfOrTH0WhHJCqO7QJ8Y1vXIKFC5eCew2op33wPY4x7ZPP+tlfH/uvUbQ8o2aqjnRGzVIDBx+8cznqrC4pGdmudS/GTPBx8YXn22xiq6pF0qHKww++fxnqSYYj3nIEpk6djqyWQngKY8eV4fkUYco1kkkUI88iJgvJwOM+jKZSCg0RUkg8gyd8xLHKHcTWE00hdPps3pomyxh+8Yvf4/ob7gFjDTCBhKereOfRR541dcdpv97vP3/gMpJH2B51pDPCFvTfTefEnXcO6kHyYJDEO2lWQfsEH5f89/k2aY8C6LnaX4AkJdIIoSQpqZPCH4XGNQSJcmmKOlE+zgDpcKqhUmCGBNwFOCUcCoZM13LioTIKFoIpAS5I0lQPhORzWVQqhVj40FP47reuBEOEJOvHwXvPwodPPoaqs1ZnpfGfvPS2nmvnz5/vOoOOkL3qSGeELOSmTGM+wP/1xp1+G3d3Hc9DoKkd+NFFX4EQZIFQqQORjAGjKlArS2FtGQQiz7XhIN0cKp2gyBXxjoKxpENf1IRPQKickDKuIDn5bAKkdYWQB6AjnbVyrEwGt7IYlJeTZQJ//OMt+Mst92L78QV84ORj0FCQ4D5HPyt1eQ1T5zbv/fGlmzJHd8/wR8CRzvBfoy06wgtOPuj8Rx946DwT+WibEOHC751tnbeC56TjhQJJXIcIImSpAfd8pPU6ClGUJwGS1AUdo6w/h7KIKUyu7M/UwZNOapoJKO6hphiuv/5mPLzgURz95sOx3/67IEsrCEgTWSlbyZ4nFVKdFkcWxwh716Je6wELKDM6AQ/LqKD9+2MPwlmMOWtni26GrfQwRzpbCfit8drHf3dOW4GxRVf++KfjqMXUBz76Hrz1qAMhVWwlLihkTpYNZ1QHFSGTHi65+EoseOBRHPSmN+LUU98HoymCTSQz0IqcelfZdjWkAqggqJDUBDBRK+68bxHuf2AR7vrrnfBMigvmfxI7zJqALKvaBEE6WoGOY5QMZFLIrAqz7lmrq1NXMQLKXFYcvHGH1cvTlt1mH3Jax9bAzb1zyyLgSGfL4jlsn2auvlo8O+aJ8xtV1zlpPWMVwzFx1g7ENNahS1YMCXRRPyoiDW3KeOzRZ9Ddo3DxxVciDBJ88lPvw9x5s2B0kuskk0qgrbkCFKkKIslLGEyEalrCw4+vxrzDj8O733IkdFzBJz/+HrzpoDcAog6qhzCaNHoiMNsdNAF0FWnHWsiMkhQlfNsoK0JFTKolLbN2mjj3pOXDFmA3sE1GwJHOJkO1bd+49PafjW/E6vvLydpJSsfgLWV4La1gppSXNFBlN1JwwZBKsl5ace+9izHvoLfhlPe+H/W+lfjgfxyF4449NJe6oA6fhttQee5SJokMckZnAAshVRk//9mf0N2R4v4HFlii+tIXP4zddp8OCCItUvPxAOPb5zCTwagY8Zp/IdRU/c6heYI0EKjwybEOZu84cf/3PrNtr4IbvXUFOhhGBwJr77xse6+6+ukoXQcWKKBURtjcDs2C/Jfe1lBJQGibpJekEa78+R+w4IHFWLu2Gx7rw2c/+T7M22tHeBH1tsorySklEOTrIVVBJi2ZUFYx91rxu2tuxi9++js0NDWgqbGIb3/rsyiWaddRwz1SEKRjFREPVWjlxaZ9a5fCVx4NA2B1JMQ/5ZlLq2bG3Cn7neS6f46A7epIZwQs4qZMYdUdP9ipJDseC2U3UqRgUQtKbZMgubRhbntMsoLsVArq2US9W2+9D9/97uVoaGhFUwm4+KKvolAmP0uWV6ETaViLhYo5yblMcqNEOtRZoohlS9fjrLO+AurP958fOBlvP+4QaFUfEPCiExqpCnowJJnBDJSso69jFbyMw6P6KyTIhGdUadZX2/b/9Fc3ZZ7unuGPgCOd4b9GW2SES+65fNyYdMW9fm3lVJvO5zejOHYipMfANEWQ8kIGai8jPB9KMvRWFT5x5lnor2ic+uGTcdRbDgATyYA4V56JTERle2OR5cPp8+SMpp8DGBTwjzvuspGq/d60H0JBR6883YZKIigfkSJYxkqZasi4imTdMkSMW3EwyT1kYes/RWHG28r7fGTtFgHCPWSrI+BIZ6svwdAM4OqrrxZvmbj8XNH/xPyIKZaaEIXxkyHDQp7YZ/06APcEVJZaMlCKY8mSFajWE8yePcOKrVM+jy17YHmeDeXcCI8KQEkhkEog6IiVJ/2R9o4flaAzIiJtycVqINt2xbm6oFXAILkMZhDXKpBrlsCnljd+OYtZ8WZZbP1s+wFf+NfQoOTeMhQIONIZCpSHyTvW3PvL6YWeRbcUTNf2zPfg0fEqKNnR0fHKks9gv6sB9T9yEdNBh/6JSsnJHqKSB3s/WSS2vXCurWP7ZW2kr2Ody1ZVkPw39CSKRg0c5XIv0gaZU+qVldSSetrX86zHoyXdMa7VxTHXTD3wjO5hAp8bxhZCwJHOFgJyW3nMir9celCTWHV1UusaO2biVEg/zLOQB0LfloA2TIZqq0hEPc/KMSQnShErTd3IObJa3eb2iSjM5UrtBwc1kDciG0s6+c95Tk7+Btu2mLFcHIzRkU58p7Dr2nOA+fSqgUSgbQVZN85NRcCRzqYiNYLu67zvkilIK59oKEdnMl9EuQAXnXUGyGeQgGwxJ/lsKJxO/a+IagChpPW/rF3xDCZMmQgWRYBHQl90zHpOtjS3bp4jHGatorxMIrdyNOmFQRoBSUJhJvpyaZdTLhhBULupvAQCjnRG6bZY89AvS2Mi9T9G1o6zoW5b0mDNmY1sHSKhQRcz5e5QXo4C1xl03I/VS59EU2sjonIDeLkVhpHVRPrKZM3kva3o+GWdxsRpG1lUxpZPkKXDIUmBECWjTeEjpZ3fe+UoXZJRM21HOqNmqZ8/UWPm8/4lb7g0iNedZlgNwkqV5lGs3K9jFdStD4YP1HfnfEQengwcCn3rVqG+fj2ENGidMQe8qRkx9bjiwubZUPtgul9SBwlKBaT2M9QbXcR5qF1RK+MCJNNIeWgUa3tL86wTbhmlSzJqpu1IZ9Qs9YsnWn3mlo/4tRWXGVSYYJQRTHrHfp7kZyvH8+Q9yjoeCG7ZIxgJeGlNGjtkGZGYugcpSdKCgwchtFJgpNy14cqPVdZRTZ4cEecRMBUCJoASGTKvoV6vNezRvvtJLlI1wvekI50RvsD/bnp9S2/a0U/WPMR0d+DxFEaSzyaAoXIGW/dEJMGh+ADpUBsailopbfviUc9xK6NDAu467wpBcqXC93Knce4myr/oP1scqqB5mou56yBvY0ykw5uXdq1vmDNlv5OcJvII35OOdEb4Av+76Zl1t5drXc8+xXTneB+1XIALvq0Yt0esDWF0ys1h0OSbIWeyZPBFAeinIxgH6hTFsjFzIGRARIevLA9mDUS+qLmfle0hi4oc1jrIj3M8RSZSZHzsTQ2zPug0kUfBfnSkMwoW+eWmOH/+fP6597/hV0hXvyfQvVT8AGNJZyDTmPRx7A/kxyH5CnIFB+B1oOOux9HxwGJ0LVuLNMmQZQmCSKA0sQVT9tsZEw7YHYjyljREYmQNcU0dKNL8qLWBdGLEXEJ64z/dNPM/LhzFyzFqpu5IZ9Qs9UtPdO2/btw9lM/e1ej3F2USg4sgJx0KktMRSgtLHIoBGRcIpYeVtz2CO77+M+xQLaGsC1Ak9CUlPK7RX8iwaozE27/zSYQzWqA4HdMMhE0kpONYnpXMdJQXXvAEKijpjLXvWZ5xwkOjfDlGxfQd6YyKZX75Sdoo1uI594dy7R7CFnIyWMVRaKuNzOkHw0j+GBlnCKUPvfBZ3H7OZZjWHSECtf8tQJCuclZHbxhj3Y4RDvzGqZDbFaCYQiS1beKnOclVZAM6POT3UTCCQQfjbg5nzDyGsbm5KLO7RjQCjnRG9PJu2uS6F//+k3599YURS2wujhrw6fg6F1xPBEWeKH+YDkYCYbfA09/5P2R/XYzWtAjF8tIGhQQrowpmnPYWtL9rX8RRZonLJzOJWfn2XFPZ1nqR30ghVSIz3vRjyjsd79oHb9pybfN3OdLZ5pdw8yfQtfiWpkg+cyPivn1834eyEhcKHpEOgLrHUcjyUojYEwh0CPZYJ56++E9gj6yFX2eAL5A0MDQfvgsmfPgIZG1UDCoRUOQdHKlHvbHoafYvrJVDTMYLY64Rcvx/sJlHJ5s/E/eEbQEBRzrbwioNwRh7nvjfQwOd3MrSGhO+oloHSGoHTFXnjCOSBkJTySaDET5IpUL0G8QL/oXOZc9CNzZgyq47AVPbAU9B+qmVQGVK2u4ShiRRpQfOKXpVR0bKgH77Ktk464Dm8Qe5Tg9DsMbD5RWOdIbLSmzlcZjbb/dqE9eex9W68zhqjDo+UDcIn4o5ZQoxIH9BTmZl+1pRUzwgSClSLgA/r8+0PiHbJ2ugYtMWe+Z5OjYhkFPrYQXlNfXHuulTzTu+25U9bOW1H+rXO9IZasSH8fvMU1c1Vln1Jz56T2BJ5nuiEaauwH2qNCdfD88zk21dlU26sa2ISUuHRNnz6BR1kqAuD7kzmsLksLVXVLFO5lEAiHKlPwk+1zQnvJKxkyjZx12jCAFHOqNosTdlqsYYUX36iv/yZf+pPFVFLyxC6yoUSVDYzp4URjdW3iKPagmQFg7LYsDzQPRj29hQtZUhKVTKQhZQhkHaVjXFNbFqOLN1zrt/x6gM3V2jDgFHOqNuyTdtwp2P/u87in7lYsj+8Xm5gwKno5LNG/SgqSSC+1BWF5nBpBSZ8mwSoLF14ym4pkxmSgwMoViotN98XZo0fapl57e6rg6btgwj8i5HOiNyWTd/UsYY1vP4/24HUTulqPhpTFfHC8S2R5aGh8zQMYoMlRScOoMigjJU/kAVEQoCEkwbkh01fSn/g+alH1Qbw/unTHG1VZu/Otv2ExzpbNvrNySjX77g1xOb/XRvhvT9hYC/Uau03egs8DnJYaS20pya54EsHZuQo2CyDDKlxL8x31ta6PjinDnzqf7BXQ4B1/fK7YFXh8BT118UTtguOEFXnr0yknHB9qeii+qnKAtHE+GkYBm1emhEzZ9wxZiDK6e5PuSvDueRfLezdEby6r5Oc1u78Ef7s57Hb4pUpcQ0tZKJ4GkJTWUTnCGwFpCGZEVUwyl3xg3NR0yce1rtdRqOe+w2hoAjnW1swYbDcNff85OT/eri/wlVF6fwObUR5ppUlPPSKUXtgnOXMxJejrPimO3bD/jCquEwdjeGrY+AI52tvwbb3Ag67r38XL9v8dcC1QFBxyrqY6U5PBsiJ83jyBaNGsTIREGr8uyj2vb5hKut2uZW+vUZsCOd1wfXEfnUp556Kqz3LD6wpfbkDxqSJbsUTJftdSXhw9MehMllKxQoRG5gRIaER6gEM6/rMJM+tOebTlo/IoFxk3pVCDjSeVVwjc6bSezr5A98dCp4/DU/WXmCWvGPaKxajrLuhybNC1aA0LkMKVk9thc6dZHgCjUj0B1MRyWaeWvD+D0/Mm3atGdcUuDo3EeDs3akM7rX/xVnf/vtt3uTp213AaLS6cxTTZFehXTx39BSW4Zy2g+hI6smqEUVkpOV48EzJHqa2ohWjymgv3lPiPH7G+U3ddbi+PxHpm9/6UnMNtty1yhEwJHOKFz0TZ3yokWLyqWWxp9qrk9IWSBItLQouxH0PA62aiFaVA8CRZ0dGFLbvYZ6YlEhhAdlQsRBE5KW6VBj90RdTILSpLus6TE/avD9L4wfP766qWNx940cBBzpjJy13KIzIQtn+o47fgrCfKeuU6YRgZsQvo7RrDuQrV4A3vMYGrAOgaFiz4KVIqXCh5SPQVyYiaxtDmTTFGgegCvy/eTi7dRHi4NdrGq1z82cOdPp6GzRlRv+D3OkM/zXaMhHaIzxe2rx++O4dllNpl5CnTjJd6MEfM4hTBVhthZy/UPQXQ+jhcUQ2kdVFJBF4yGaZ0E1zUB/NAaxCBCkCUpKImaUtOzZnljk81FK/WCHKVO+wBiVn7trtCDgSGe0rPQmztN0m+a0qH7KfPHWalwP1nV3Q/nUsVPZrp4kbyGhEXKFQtIJvvZxeP2dUEEZum0ydOMESFO0Tfok1WL5ga0wF1pD87w63Qq+g6EQhKq1qfkuAXG25+Fu52DexEXaxm9zpLONL+CWHH4cx7N9P7gODDPpGJTIDM92d6AGjQZJ1eJEONR2mBw4GcqqCvX0Inhr1qNh733R45MQeyHPTKa2M5BQ1rkcWMlSqztIPp8B0hnT1IKGYpFaY5Fv5x9gOJ8xdteWnJN71vBDwJHO8FuTrTJ5EOEmAAAgAElEQVSiSqXSXiwWb9AwewlOmjh5HdX6nk5UVIpC5oGkkME8eCR1oeoY09eLGz/7RZg1HTjy8h+id9IYGETIlKbwFYzJrBwGVaVTKxsltCUjOl6VwwKIdHxBnT5JpJ2R0Fe3NvpMIcTVjNnexu4agQg40hmBi/pqp0QyFlrrs5XW36jVa2goN+QkAIMkTbF+fQdSslMCD6CWwlqiDRorf3ENFp93EcKAY8LHT8Hkz3wAndYKCiAZZetoeNJACo5QcUjqgQWNiHtoa2pG0Q/BcrKxQ5ZSwvd9KiG9FMAXGWOVVzsXd//wR8CRzvBfo9d9hLVabf8oiv5cqfY3KaXQ1NhkCYd0jYl81nV1oSeu2h7lOqmjzDTE/Ytw8+lnY2a/RDWpIBnTjnmXnA9v3lz0kj/H96AGemdRZ1BSENQ6geAM7S2tKIdFq5psSHOHZsiAarWKcrEEzrkxxtzEGDuRMdb/ugPgXjCkCDjSGVK4h9/LyMqRUv6FC3FwV3cXyuUygiCAJt8LF9BKIZMG63q7UTExClCY3NWHW884B/yuBxFBQpoMKeNI9t8LR192IdYUG5GSjKntEKqtMHvdZygYoKlcRkOxbNN1PC6gNFk/zAq5d/f0WAvIchB9CPhfAO9nVGvhrhGDgCOdEbOUr20iUsqjGee/V1oF6zo60N7eDsHIxrF2Tn70YRx9WYo1fR1orcVYddEv8fSlP0NbVkfRUF6ORCw0+sJGtJ/8LuzxmTOwvhTaXlc+6SVnGl4hQmtDIwpBNNAzIt96gxaVNNpaOpHnIwzDwclIY8yFnPNznI/nta3vcPyUI53huCoA63nm783dWppp0w/pJb/t6zHMnp6elkKh8JAX+FPiJEFPb68lHU7HISId0l6HQcYMpGGo9/WjuVLFnz95NrLb/obWagVS1q1zmD7jB21YEEY45ucXIZg3B3Wm4QUMxUIBrVEjPO5v8OEMWDKg9GTbnsYY9Fb6EAgPpVIpJ6Tc1yO11u8bcC6/Lji8Hti6Z748Ao50huHuqKy+Z+eksubGYuhnBb+4N5t4SMfrMUyl1GcYY/9lGFhffz+q9RrGtY+1Fg71fbCHGuo3zgyUoSpyBpYm0LVerPrOJVhy0RVgWQKmJZQnUNj9Ddjl3M+gcNQhqBqKY3GwgEMJDwLc5ucQkXCed5XILZ3nrt6+XgjG0dDQsIF0BhzNqZTywCAI7ns9cHDPHFoEHOkMLd7P/bIZw9Y8+ct53PNmMt5829jpb10z+I/xihtOTfpXXyboXBK0nlOa9s7vbunEOWPMFK31fZzz8WRtdFISoNFoa20DxZ9sO3NiBJN3+oQXQSeAFgZRpQePnzUf7He3wav0ISoU0cOApvefgCnfOxuJH8Kn3BzK9eESofEsgVEHG3rkhohV7rexRETfVSoVCCFQKBQsMdm/f+6evzPGjmCMxVtpydxrtxACjnS2EJCv5jFdT/3sbSWRHsi5fHctSyfHWiwKg9YLmpZNupYdcoisL77hAK3W/JGpnlYetMQpWk9s3P7Y//dq3vFK9yqlPsYYu5iIgZzGXT3d4EKgpal5g3A2kY62WchUtuBBUeM8bhAsfBz3vP+jmLRyLYIsRewzxMxDda9dsOe1l8E0tIJBWILKoOGTlUP+Ytue5jkioTFSIiEGyKVWq8HzPAqbbyAbumfDUUzrzwshvvtKc3P/PrwRcKSzFdan/4nLb/Cy/iMDCCifIeN1GOMbpM231PzolDGzT15de+LnX+Np5xe5L1D3WlZwf8IRjdPf8sSWGK4xpmCMuROM7WH7UimN7p5uRFGEcqn8vFcoSxMGnuJIGSCyGP0//hWe+Oq3MYlrNE1ogSiX0LemB8t5gL1/ezkwZxdoz7dhcG40FDfWeqLihxdeG1szFK4nghm0cjYmnAGLaB1jbHfG2AarcEvg4Z4xtAg40hlavLF+/d8mhH1P3+pl1Z0DFJAmKYQfW9U9zkuopf4q44lPhVyXRFr9GWnSJDxAFrbf2LTDe47aEsM1xpwCgHqIMzpa0f/Wd6xHY2MjopCiSxtd9uiTx5gSZhB19+Du952BqWvWYmxjiFpah+qPkayv4FnlYftvnI3m95wAXcifYws7Ka8n/+llhz+YILiRVZN/YiP/D/2slPqzEOI45vR4tsRW2CrPcKQzxLCvePrGI4v62WsbUCsyMh20D+FlMKoGTi15rTPFi43hSqus5PnMtnZJvOaaKk45rGnym+/ZnCEbYwKt9b2c8zfQLzqRDmcc9bhuCWfwl37DO6gHuZb2l7+uaig88BTufd8ZmO0xVGvd6O+poKR9q41cEUXUjjkIe/zo2zCNFIEaDIsT3ZBXetNJ54UkNDgerXUipdwjDMPHNwcH99mth4AjnSHG3tx/v5+0Pf0xUe/8spBZC/UBp8JIIzgyzRGSx9WQL8SABz5MRkWSAplogmie9pvgCfV+8vu8lmEPlDt8lDH2Q9uIcyNHLpUg0C86JQZufFlLCKSBI4G4F8mFv8Ki716KcUpCqwye8RFSm2GuIXkBj05swWG3/hqYMgHGSpcOHqr+PekMHJ82OI9fRH6DDue8bOJWxthRLnfnteyCrf8ZRzpbaQ0qj/zqpKInfwDVN8GIhGn6BeURRJZYyyPjAtIAnlHwDEeqQrDmqR1hy7idWcOer0ng3BjTpLV+jDE2kaa9cd1TvV4HfbW1tW1k5OTHKvIfe5Q5vGYN7nv7R9C++Bl4MkFmNAIeIcwo00aCGR9PFgPsce2liA6ca3ubk/+YGtLADGTkDBDd809wuXOZHNpxHFviI4fyy11Ejkqp/X3fdxXpW2n/bs5rHelsDnqb8VmyOvDE71u7ss4fN0bJ8ULHQmcKIqDmdaRcE9qkOUFxaqRWHiL2xqfBmB3P6JZtt48bN3XJq329lPIUzvmVjOLvG4Wj6TlpmiJJkg05MoOWB1k5RH7Umzxb+Cj+cfC7sDtFsniG2ANYylGUDMpT0JJhXeBjxne+gIZTToQOQlDdFWkmU/zdJjdvAukQ4dDXC8PmG89XKXWt53nvfLUYuPu3PgKOdLbyGpinrg/70rWHhMJ8VKj4cINaiVFCi/bBlALnKZinkCFCBePhtcxZ2pMW7zB+6ZfVrq4758yZs0k9wo0x44wxCxljE15qykRCL0rcsxnBA34ZWUf/T67GynO+hwlxDMkUVEDjZAgkUA0UtGZIvALEyUdh+2+fC9lQgmYefJKzsKTDXpF0yNoiYqKwOX39G2snllIeEgTBZvm4tvLyj8rXO9IZJstuzO1edWn/HC473+wjO5ypbB7XcasyChAhaqIVVW+iqYtx65QoUk7NXxvD8sXtLS13bkriYJIk5wVBcP6/O7K80Aqx1pBhMKSPU+vBstPnw9z4NzRkMaRKrRKgEhxe4MMrRYgTCVk3WLvrDtj3lz+E2m6iPWJ5NstQD5DOi53Jg1YXHa+IdOgiK4dI598ds7TWlwghzhwmS+iGsYkIONLZRKCG8jY6etWf/vU+nKnzEqXfnLKip6OxyKJxqMiIftvrPmfrGkqlW8Y2tpDa3tp/Nz5jzPYDEau2Fx6rXvjzi3wtVs3LQC3+F+57+4fRtraDzlRgnkG5XELY2ohyWxt85aFvXSe6nlmPJc1lHHTNT8Dn7goq+bQqgqTGTg5p61oedCoL+x3F7En6gmQu4pTkkg20UbbK3Q99WxrxonHlPqAlnPNZLnw+lLtz89/lSGfzMXzdnmBuv91bPbvx2EyLy7UIWxWjzpkhTKa7Cr5Xbm1uNr7nXRRy74J/J3iVZdm1QogTaKAv7VOxFQvWkftcYp6tgaAqCPDEoOe2m/DIf5yJiYKjNLYZLRNb4fsC1b46evvrUGu7kWmDqGqw0g8x69KvofVdxwAmj4ZJe1IiYS86DWb276lfFlEMp8JQ6omeCdQyymGm3CEK0wPCFwj8KPcHDR72BnatMUalaXp0FEWuZfHrtgu3/IMd6Wx5TLfoE1etur8Yq+IdRvhzFQtgWIDI89DaUEYUWGdzYoy6M5P63OJL+DfiOD7c9/3rGGPRSxGOpQJbdWm01ppxzsnPDGM0tFYQzAP6Ezz93xej+sMrMaEQoaG9GV19nch6KwgSg1QyUCogkYWXMHRFJTR+7oOYePbpMCJXB8xF2XmeLWhTEilVgKwVQJDsMqUNaEmvgqBomUqsEDzpMntBCUz4NkmRDUhtDFpoxpjfMsZO2pQj5hZdGPew14yAI53XDN3QfXD5s8uPVZxfoZnX7gUh2ohwPOqnYOWvoCkcbcxKLdXZQRDQL6HtJdXX19cWRdHfPc/b6eUIZ5B0lJKPAZgshGjM7yXHLwlwMaCvjof/8+OIbvsHIqNsCF1xhZAsGyoC9SIoyLxQNDNIojKqRx+A2T/6OpKWss3jyYPvHIYsKhIktD/n2dD095KBZNyR1SrWB0TkQvyimAfuFXL/zga39oAOTx4Jo5KIHRhjrnHf0G3JzXqTI53Ngm/oPry2o/t4L/AvL5SKbT5nEAO6whsS/GzxpFYw5lqjzYXa8/qQpp8TQvynEGQ7PP/aOONXazyptbwKwMeEEOMGSYcsHWQp+KoOPHTshzFh6XKYJIEQHlLfVm0hYgF6MwU/FPZeIkEuilg5azu88f8uRv/2E1DSJMpFfh06WlHTPiIaKjuPc1F2FK1ejyLhoJjUSSk5krKz87A5HbUiIh1BlefPHREHrJ0kTdM3hGG4RerShm5FR++bHOlsO2vParXaxKhQ+BOAPV9q4ayLNrd6lDGU7cO8VyIcpWw4+9Oc8wVSyt8JIdqeSxrUkP0VJPcuxNPv/Rwm9fXlfauEh5gykKlzORNIvLyDp5ApMq7BlY9149sx91cXIj5gd/iGyiQUFI/BiXSUgO1DgxRJmiDkAaAyQNUA5aOuAuiwiMQwFMgXlHaDNOF5WEICz1atk503eMSSUn7b9/2zt52lHN0jdaSzja2/MaYVML8C2NEvFXnaIIr1QkvoBcmAg9OW0tzueexdaZpOYIzd4ft+c/5cciwr8DTD8st+jr75l6Alq1NiMTjzQe4Z2+1BEXVwCAX4TCEJNZgUWBVG2PH7X0b0geOsAJhnc3TIgZz3zSKrhloQ08FLZJ149s7fYt1jf8GEqXtg3B6HwTRNR5U1QHMPvkoQMAXuB4BXsGPbeONKKR956KGH9po7d67rFLoN7GdHOtvAIr3oaNTfP84Uiz+j+qNXO/wXCGP1SCkPDYJgoTFm5yzL/un7fnGQdJSSEFLj4dPPQuF3t9g+5ozYBoE9HgVKwaPjEcmQcobM1FELJITw0SMKaPzguzH965+FEgUbEmdWU8dY3skGaMOTVSRL/4Yn//w9lPoWIeMFyKYZGL/7kWidczh0eSqSzIeAh9D3wT0xIGv43MypCJRzTn6dla8WD3f/0CPgSGfoMd8ibyQncblc/j8Ah9pw0+BlI92D8eUXL+9GUZ9MKXWe53nfyasizE5Sygc9zwueZ+lUEjz89g+g+f5HwFGHp3ybZcw5aShnyGyEyYOKOPwGDr8tQlQoQeoi1u04Eztd9HWYiDR6vNw5zLRtTUzZyZ6ug8XL8civLwBffTdaVbftkZWxCDXWCH/cbpi6zzsQTtsHmdcKbXwEAQl85Y7kQdkLV4u1RbbUkD3Ekc6QQb3lXzQgxnUHgHmWd14oW77R6m5ENjYipZS6QQjx1sFQs4nNDlLIh7nwCnkqXu4oZut6sOCwEzH+qRUIhcplMFQuzCVDg8AmB7aCt0Zk8EAJBZlJJD0aT0dlHPibnwJjxti+5taDnHfDglAKIluN+gPX4PG/XIFmXUGDH6KfnNJCg2UZFI+wnjWjfa9jsd1+xyErjEPmt8BjBdue2BN5eQX1TYdWxzPP+8OWR9k9cUsj4EhnSyM6xM8zxjQrpS5njNnixxeKXr3oaJb7eqjSnAhn2QYDyZiJmVSPcU80CSvITvwQQz/0GO5510eww9o6eBajK0wRtJZQam5Aob0JOvTBpEQ9q8HrUoirKZJaFTpW6Ggdh71/exUwZwaqth0N5d9QyJ1DmDrk6nuw6DdfRku8AowE4DWDEbCaQlxy22EihkEFJZTHzsaEPd6Mht3eCemNBfU2FpQZTdmLFB3LzKms4F0+xPC7170GBBzpvAbQhttHVq1aVWxvbz+Xc05RqMIrjG91lmVHB0Hw4Mb3GWMaUymf8DxvgjVIiHXiGJU/3ISnP3UextQzFNpKwMQGhKUQvJ6hXq3aXlW6P4HoTxCkPlJuoL08K2dNYzP2/cVPgDftYRMBmUcJh17eaC9ZjiU3XYTaouvQhBiKsgRtnRZHRjo9EPBJoVlkqGnK7ymiP2hDyxvegemHngJ4zdYhTcc0upRS3/R9/4vDbW3ceF6MgCOdEbQrjDEHG2MuY4xt/xKCxOS3eUZK+Y4gCBa8hAVUSFW2KBD+9PzfFFBLserbP0L/JVeiiXO0TZ2AnrQP/d299t9AAmPkENYcHgmQaR+pUNAmhhYMaxuaMe/yHwJH7k3mC0h6VaIAoevoe/AaLLnpB2gz66yDmfxCTWPHoOgXsHr1swA16LNHsTqMDaVxZH4JfU27Y/dTvg5e2A7gJajBai6V/TT0gg+NoOUcsVNxpDPClpaKRbMs+5jneecCGD/gY06UUr8VQnycMdb9UlM2xoRxlj4SecFMyhim+BLvjfHw6ecivPFGhFKhQL/8KZVGkP+IihTyrGHNfWShhzAhYiHp1TpM4GNNQzP2vOJi6CP2okYQkDbTWECsW4Qnr/0K/K5/gms6QBVQamxG88SxNllw2TNLYKjrjZVSzWwKcwQPsWHoDLbHHmdcBF6eCnDKhKZxUGWFujwQwakjbDlH5HQc6YzIZbW9pBoBkHZOqV6vrysUCmv+nbynMcZLtXwwYN4csi8Mk/C66/jHyadj/L33w8syFIRnWwSTDCnl2BChCSNy8XWjEUEgQwrGJWqGY+20aZj721/C7DjJ+mpIgjVUvVh348Xouf8qlEQPMlGElB62mzoJOvIh4ypWrFwO+oBHmsrkszECoaSeWwKdwVTsfurFEM0zwDhlCtFRTgJJdokXNTmZi21gPzvS2QYWaSiGSBaSVPJuj3t7W7kJJsF7a7j93R/D1H/ci4IBSEeZtHMkiYsxajxMZaJUuklfCorC4B4DlwpVv4h183bHvN/8BLKpwfpzDOrgnQ/j8Ss/i+Z4CbQAelQR7WPHor21AZkx6Fy+DElWt/4aq+VDRyxFecxU76XR4U3C7qddAdE025JOfiXoX/3UnSse+OspO7/tk08NBV7uHa8dAUc6rx27EffJLMtu5sJ7s+UcpsCqCR674AfAj3+FlsTA8wX60zqKfgChDVKmUfcVROhBFAQUSYz2Z/BqCiu4wPTzPo8xZ/wnVEg5OjG8ZA2e/MO3wZfdipLsQUo1V1ELxk8eh1AYVPsq6Fm5KicoIjPS4aGWxgqIGJBxiY5gInY/7ZcQTTuCGc9aXczUsebhG/Dk7Vcv8ZLKKft94fq/U6H8iFugETIhRzojZCG3xDRkpq/Rgr2TyqJI4wZSAg88jL+d/CHM6JAIEwVVYJBJbLVuWFOIcFIrys0NEKUAGcmVPrUWa9Z1Yf2cHXDAVVeg3t6OoEgZzL1IH70BD177dbR66+xRDLqIsZO2g2gKIKVC5zMrwLIUiRkQZzcGqZKQGYNvgFRo9DVMx24fvBKicbp1MEv48E2MNff9Bstv+SHKLIk7VPP8tWbSD06af80mSbluCezcMzYdAUc6m47ViL9TSnmFEeJDRDrEOXTEQq2O5ed/Fz0/vw7t/RkykcIIgzGT2hGOa0ZfUoWs1iB768iqNUSxh5XFADN/cB4ajjsKLGwEVB1IV+DJq86D6V4AwSpgWYAxjePQ1NIEXQ6wbv161Nevt0c3v+Rj/PjxqFf60UU91jOBwAgkgqPWNBu7feASiIZx0EwiQ4DAZFj91yvR8/dLMMbvQ1/my/7GHe5KwvEf3+eMXz884hduG5ugI51tbMFez+EaYy4ywMetr4Ya8ZGSoMzA1nZi8QU/RN+1N6JdJ2AmgaBOENyHzIAsMxCKQUQKa43GxE98BOM+cxrSlmZwzeCpdVi34LdY+5eLUNQV+9xS1Ixx46aAiwCpTrBy1RJoinrJEBMmT0ZU8LF61UokcQqjU4RMoo5GZOMPwK7v/w6M35TnL3Ifvu7Csj99B+mi6xCoPni+j0rG4BXKy8Og7bx77xz3Pyddcw0Fudw1DBBwpDMMFmG4DMEY820Anx8czyDxaCPhr+7Asm9fgu5f/h7j0hh+IBDLFJ4JwCnKxDmWljha3nUMZp/3OZi2VijugVHRaPURPPGr8+B3PQZBuTqCY8z4iWhoarHNBNcSuVT7rZZg2NiA8RO2Q19nl211rIUBVykKWqIXzSjPOxHbHfFJaDSCcYqWcQR6LZ666hywFX+3Ry3SkedBgHocw/cblQzHXVqPyhfs+YkbXlO/sOGyPiNlHI50RspKboF5GGPOA7ChYwRZJBQKz0g+lEkE3b3o+O+fYcl//xKTpEHGMlLsscLta0ohJn3wfZh83idQZxJR2EClCWC8Dx13/hidd/wUZSOhBINpiNA2aYLV2Il7u9G9Zr3V2CkUy2iZOh5MMXQ8sxJZlkGSYJmWlnTW8RZMPfHzKO9wNAxrzJv5qRRh9gweueJTaOh5FAIpapKhEJJwWF5WEcc1qOLkc+d8fsE3tgBM7hGbiYAjnc0EcCR9XCn1Mc75xc+3dKgggkFRQZZJEHb0YtXl12DFT65Gc1c/YlWHnjYesz57JkpvPwqyJbD+IG5I7kLCJE/iX1d+HmHPo+BpAu0HCJtb0Da2HXG1Fz2rV8FIDe4X0DZhMoJyAV3rVqHesR7ckHog6UATfyhUm2di9vu/BVOeDUXVHqSfbKrQy+/Comvmo6W22BaB1kwBpKjMhEZFphAsBC+2Hj/7cw+6gtBhsGEd6QyDRRguQ5BSvlMIcfVGUsS5nKhhyASl4CmE1B2iniG+ZyG67lkIwxTGH3YgxK47Q0WBbTXjZRKKh1BeDWrlX7H45/NRVmsQ+RL1VAJByXZ4YGkGk8W22IEVCxgzZTuk/XX09nRCVnthbRVWQMxDVOCjYcfDsP3xX4bmTaRZCEZdJGQH1v7jKqy7+xdokats5nNdlMGlsQWhMfNR4+PXF1un7TH79GueHS5Yj+ZxONIZzav/grlT7RaA26hYfWNrJ894IQF4G0sHiXvRDfQLThnDJOiVehxMh7aFMNfKHqMylkKt/yeevOrraKougVDd8P0QiQSECKCovoqeR8cu30CEPvwMiCWHVglKgshLoIO1IW2Zgx0OPBmtOx4ORaWgVByKBLy+DI/8z/nw1j2ABk0VHgYxL4HkoiOKvvGy6Yx2/NIf++d9a/78+XmbLXdtVQQc6WxV+IfXy40xcwHcuzHpUB4xWSK+4tBSI/VJdpTn0jiUQdzTi2JjCN9X8E0ZXOU9tEjnJs1SBEENlcdvwOIbL0epvsaGt7VOEfgeMklV5wyM2tMwbYsotFTIWAM8KnEwVdS8EKXd3or23d4BU54OE7agUGoAdT6lkgq5/p948Kfnohmd8FQdHjdIEVp5DF9KKFXujibPmzXxtF93DC+0R+9oHOmM3rV/0cyNMTNJa8fK/A1edLxixraIIacyiaKDcShqPKE01nd2ojymBSXKRrb/MVuAyUlnmarHlQYPepAuuxNP3/IbVFYtQptXha/6c8tJRLbrA9MUCUstWdgqLh6gXwLZxN0w+YiPoi+agYwiZSJEIfDRWCygpDuw/rYfo/vB38NHDYaibNQiBwIJlWx4Eeps3JW7qKNPZc7KGTY73ZHOsFmKrT8QY8wUAIttL+CBK29VY3tu2gJPqocCtaYh5UAGrO7sQHO5GQ1eAVad3ZClQsFvQGhuG+wRkQjdB9n5MFbdeS16nvgLWk23FQmjZnyUVUxHNE7HLE7klRNaHEzBmAM+iHiHN6Pil62FxLSwtV3lgKE9WY5FV38VrbUnbdGn7aylsrwuzPPRo4PeuGGXY9/4qd/9beuj60YwiIAjHbcXNiBgjJmolV7GGRsQIrZNpvJ/t7KgA5KovG6lL6QJsbanH4Wih9agPCCXSlXoma2JMvBtFTqJdjFGpEAypOvR9c8/YtU//wCvfwkCVKxUBtMBjPJgvABS9wGBj/7CDOx09Bewprgb6mEDGIsRyBrqJkCDryEf/iO6/vpDtHq9NtIVGSqLABIBpMag6k+9eu4X736XW+LhhYAjneG1Hlt1NMaYcQCW2ybjeaNha+NwIUBdrujUZRvl0bmJKsANx7quDF5RoaFIFgrJUeSV4Xn/ztz3Q/k+pLMj6Ghmo2F1ZCsXYMntP0O2/C40sV5w5kFS33PNwHmMzOPo9idixmGno799P/RH46x2T2gSKCEwxnRi3W2XQiy9DSzpQsCoH5ZAxjzbXyvhBd0vJh8z7+w7btiqoLqXvwgBRzpuU2xAoKurq6m5uXk1ozg1cYO1ULhtGaORWhJhVkg0bzhBPbC6+/sBP0Wx2ABmf+0tW+W90A1Vl9t0Gli1Yxbkz6NwNrWziVeib8EfseS+36GsOhHoKnhSB4IC6lEzJs87GHz8Tuj1JyErTEOMFmSsAE9XMb7vISy9+RKU+p+Br1MYJUG93rVNJkzQ74+9NW2bfNzc066ruSUeXgg40hle67FVR3P//ff7O+6448IoKswZaGc+0NaXmIOOR+I568VaPBJKSxhOTfRK9t8oh5Ab0sNJqTMWMhTgUZ0WUluc6Wny9ShkscSa9WvxzPLHsfCGn6I9fRK7jaWIVDdUOAbbzT0U/tgJkIIOZQFMMBGxNwlJ2I5i0oXef16FyhM3o4AEAR37lERCYXgqu+ARqtGEE95w1h2/36qAupe/JAKOdNzG2IDA/Pnz+Zo16+6ZPmPGvI5N/ekAAB1MSURBVL323AuTJ09GQ7lo9XO8UIB7JVBbdHL6+l4VTHTnTmWrYZxbOLnSH/Ujj1GNQyxeIVCpAH09a7B8TSc6Vq3A6mVPY/HSVVjeVUdvPUEou7BDoRsH79iIA/eZgDm7zkXLxFnITAYR0bGOIUuLMKwBEgJrHr0P/U/djpLpslGykLpIUP9zQTlEBlk07aE0aD94j0//occt7/BDwJHO8FuTrTqiPefOu6zSVzk1TTMI4aFYiNBUKiIoluGHrSgWFAqiF0cfMR4HvrGMxoBBxjGgK5DkLNYKjKJSCHD/vyTO+dbfUatthyhg0LbfVgLuaQgvQsZIg0fAVxkiWUGLn+KCrxz35zfN3eWtqlKHHzFInUIJKoWI4KkYqmcFnrzjBns/RcuYIUF4bZUGU0hoUU47C7udvPdnfuesnK26k17+5Y50hunCbK1h7bTTLu+q1eNfNzQ0kMB7Lr7OiTAEdFaAx9ehYJ7FmadMxzGHcYj+Z9EYkkB6hsw3MIrDVwZalPDYqnH46LkLkKndrUUiPQ/aFmZJaEPhb8peFuB05AJDMWL44ddPunfX7Vv2LhgJikUZRimD5Ecy8GQfup5egO5Fd9t8HMkD2zWUCkKFJ1CnBMby9Mcr5ea5zpeztXbQK7/Xkc4rYzSq7th3330L3d39d0uldhe+jzRNIHxuyw6MaQA3nYiSTnz45PF47/EeonQ5QkXtgkMkVANhPIRGQTEfj60bj498aQHqcte8BTGLoEkGlfR4BGzWMec+ApLAYBqlgjCf/+Dh/3XI/jM/xNHbKpiyeT5ESEzG0HEXnrrrNniVVRCaJE3zWBnJXwgGxKYh6W/Z48y5Z/76yoF2gaNq7baVyTrS2VZWagjHuec++35fpurTFMGiGiuVxsiISEwZQtQQyRS7z1qH886ahXGlteAp5cmQnCiVM0QQiYFiJSxY3oIzv/YIUuyGyKN2e+QXEjCCgfs+fO7bsgchuFUBZELLA+ZMPuDsM98xycfaK0IRtxhJUqU+uK6j5/H70PXUw9C6ZlvZ+Jo6Umikgnqj0/vH3/3YDtMOPOkkJ9g1hNvlVb/Kkc6rhmzkf+CN+x74HQOcRQ5iT1jascciquwmhzG1BhZqMY4/qhVvO7IdzeFqlOs94F5CPfJgvLHoy6bhNzesx+9v60HqTbWlCT75ewZyDHMUKddH2wgZRZ380NczJrUeeNVVv71rzUO/22VMufo9XV1zqEd+6lq1b9Gtf2pslSu9LAvAixGMrMKns5kOUTHNpt487T17fvJPvxn5K7Rtz9CRzra9fq/L6PfZ78BvS2M+Tzk1QvikCQotMmgbGvegE6Dske+mE60NFczaoRGt7QWQbhYJrK9aVcfyVQwr1jLooA3knTFcQtgufs/fclRmQaRDCYRCcN3S7B9y/Z9utmULS5f+LGrrz/b0ueC1Z1Y8vPRfdx8YJqv+u8lUtueGoVqvolT00Z8kSJvn3NPZNP2QQ075efy6gOIeusUQcKSzxaAcOQ/a94CDv5lJeTbjHJwF4FSeQDITIrHlEEYLCC1AQqUy7kMYCVQ4UQvVT1HRZwAtfQi/iDRLEPgURk9svs0LScfaO4zlWcuUjyyyo+792103vxya91x03M7Fyr++VsyqR3mCR8qkqAgfWePs4+Z9/JY/jZxVGLkzcaQzctf2Nc9s/4MOOz9N0/OIdHIZi7yJFBVuUnkDZQDmJKER+By1egJfFCEowqUy20qCexyplvB5YOVMhaEIGDmcX35YWmujGE5ecOffSEjsZS8zfz5f4N/w4TKrfAFZ//QkmnB92rzde+eedk3va560++CQIeBIZ8ig3nZetP9Bh52XZdn55NPJtXFSwAQwZkB3mOQjqKiTvMdkDRmGiCJYRC6CQzGNBDUKT1mR9IB0djSFy3Ppio2vvIqdHkPCXQpKph954L57rtgUtP729bdMCAXeX9HNfzj8i//35KZ8xt2z9RFwpLP112DYjWC/gw89N0uzr5GVY5ONubb5NNRR016UBEjZx0xYMqJcHs66IVjQp1Lvfsa8WbFKJhcaAtRrFZTCIkgHwyYtv8SOG/TrKKWo3cy5999zjxNQH3a7YssNyJHOlsNyxDxp/4MOOyfLsm/Q8YouOhaRL4YsGjpSkd4NjMzLH4xvSxA0T26q1dTHHn3ggcW77XfE2ECzDxsj53uh8DWJo1PHc4o0vcS1gXS0Ql1WvvfovQs/N2LAdBN5EQKOdNymeBEC+x90+KezLP1+Tjq5cmBuouRyFZRvQ4kxuaeH5AF1nCbJ3gsW3LtxN00+d97eP2KBOJUyAS19afr/F2+5jUkng/yfB++8631uWUYuAo50Ru7avuaZHXjo4R9Pk/QikiWl9ECqbwKVJHDy5RANEenQcYuIJINU2X1JpffAxx577Hm9w+fus8/BUrHbqTdWEASwDp5XsHSkZjcuvPuOt1qTyl0jEgFHOiNyWTdvUvsdeOjpSstL2f9v71yA46rOO37OuY/dlWQbFxqgGLDBYDrU1FTYeqz2obUkmwYXmMQmZCAJKWTSaZIpmU6ZzCQDTdMO7UwydGD6CLTh0QaIS6akaR380kqrfcleBDY2GNwWApgSEz+1j/s453a+u1prtV5ZWkl796793RnNeHfvPec7v3P8n3PPOd/32a4PpbLsFRn7g+2LJSyiMPCIEkQr5LeOjaYhQt+UVeJgMLgib4j/kRW1tCV+lmEwy4Etc3siBGmMVfl18/TJtZlMxphfK/BptxJA0XFrzzTQru5Q6D7TtP6ZMQjJBS4GlWnAJ8QHnC0liRiG/tjeZPzBSpPb29uXtLYtfk8z+ZLirOncl31AUJHe++RD76rDh7dpM92PvzcnARSd5uy3ulrd1RO5m1vmj6cTnZLrAoiEHaydWN9OjQz/ZaVRmzdvlo4c+Xg3pzRon++Z4bJnPTL72Bw/dU0mk8GIfzMBa9LfZx4JTdowNHvuBALh9Z8zTP58MQOEVHWmU3ol0nWd+Hzq/fFoFDy7z7publ/7XY+v5TvnEp3yVyzTEidJIXt1JpPBg35z70JXP4mi4+ruaYxxwfD6uwzOXxATO1Znr+laBIQCXq3Gx8dJa1vb7anhwaouCD09oTsNy3qJMomWDgJWtqpcdDRTP22ctpYfOJA81pjWY631JoCiU2/CTVh+V0/4NsLof9jB1yfO5kxtRnHxF16vTEhq51W6R4eGktWa2tERXiaY+Q6hzAunjuG5kviU/7v0nWnxnMKNa9Lp9MdNiA5NngUBFJ1ZQLrQbukK9G6glPyCQ7oY+4TN1N3rouBwW0B0XbdUj7wmHYuVn9E5g2zlrbd6Ljp+6gNZUS8pzWiqiU7pAYtaBauQu37Pnj3vX2jcL5T2ouhcKD1dQzu7g5EIIWQXt506zxadongUC+ScW5Jgq9Lp4XeqVREOh2WTSG8bJl8x4UlezDAx4V1e+cplCNPwyKw9OTy8vwaT8dYmIoCi00Sd5ZSp/tD6gEWsYYiNAwvJ1dZ0QEAURSGaplmKV7kmFY2+O419LNS3IXXq1Om1cECwdPq4UmxKC9OaqUOkr8hYIoGpgJ3qcIfrQdFxGHgzVBeIRNZZgqV1A9K/TGYWnrS9uKYz8bpkacJYNhaPH5mubZ2B0A8tTh4gDLzWJ9d0qt3PhWmpkrwlEYv+WzOwQhtrJ4CiUzuz8/6JcLh/jUmtMcMAb/LJE8PlolN6PZIkyWJcvzQWix2dDkw40ve1XF5/nNqhT2e6IA8x+eN0YujvZroTf29OAig6zdlvdbW6t7f3RsOS9humaW9zl159SpXa4S7AZYExIiuKIHr+kpGRkePTGdXREepnKn3FDqM+caBwuntlWSKGbjwymhj+87o2EgtvGAEUnYahd2/FwWD/dZZE3tQNQ5puplNam2GMjY8f/+Syffv2ZadrUSQSuTqv832ESYthix3O95REq3JtB047U8t6Mp2IfcW9hNCy+RBA0ZkPvfP02eDAwAphiEOGYSrVRKd894oQ8oFPptdFo9FpA6KHw2FvVjPelBXPckjgJ0PSvYmZUjXRYYS8lIoPf/Y8xXvBNwtF54IfAmcD6AiHl8mWdMjkvKU6nikOn695mLU2Go0WV52nuTqD4aRp8E54JYO/crEpP7/DGIX15pjKSGSmMrHrmpMAik5z9ltdre7oWH8p81iHLMtaUs11oeyMDrG4GN6b7u8l5JFzxr8J9EZezheMP6gmOqXGFF/ZKJGZ9GZ+/MQt6PRZ125uWOEoOg1D796Kw+HwRXlO3qGE2qeIKy9Yd4EzN9lsFgIB/nQsnfzMTK0JRiKP5vLGQzOJDgR296jqr81C9rpzLU7PVB/+7l4CKDru7ZuGWdbe3t4ieVsPMyZdXm23Cb6DXSYIpM5k9nRqKHrfTMZ29fR8weD0melEZ/LcDyE+r9csjOvLk8ndH85ULv7efARQdJqvz+pucXt7uwKiQym7qnIh2Q5RYacCpsV0wMJ8LB0bPiuAV6WR7R3+XkmWdkP0HZge2SJTFmiwJDpQn0dViFkwr0smo4fr3liswHECKDqOI3d/hRB86/2Pjh4ilF5bln3TNhxyQYBc2H+UEG4a39qTjD86U6v8fv8qKqkHTHDVslMIS0TYaWwmh+CEAynx+bykoOVuyiST6H81E9gm/B1Fpwk7zQGTaWdP+KBFyA2VbgvlogNrOyY3v/JqKvHkTDb19PQs5UTeJ4S1zI42CJ7qFaJji5oQJJ/PkdaWtq50PJqaqVz8vfkIoOg0X585YnFXoPcNi5AbobLyxeSpMx1qmdzcsjcRm42fFF3b2TNIKQvBLAfKtMtlk0MQPsM6kaoqxOD6wN54fIcjjcVKHCWAouMo7uapbJ0/NMYYW1O5ewWiw2A1Bk4OUyaI4LemE8PbZ9Oyju7Qs0KIe0F0Sld5xs9SNELD0OG1a/MsxWw2VeM9LiKAouOiznCTKWu7AkOUsWDlQb7ymQ4oj2SRnkSietTAyvYEw32P5AvawxASo7QrJqZmrbEXp0F0PB71j+LR3f/gJiZoy8IQQNFZGI7nXSkdPaHdhNDeyoaViw5j1OSC3DI6Mvj6bAAEwv335HK558ANoiRmlbnNSy4WqqI+HBvc8d3ZlIv3NBcBFJ3m6i/HrO3sCW8nlPZXe72a3L2imtD4b4+ODv/vbAwLBCLrsoVC2uPx2LdDZEJatqZTWj+CDS1JYo8nhga/MZty8Z7mIoCi01z95Zi1nT2hn1mEbqo8pzNlTYeQcbNAV2Qy0U9mY5i/d+Mqwo234F7wNgfBqTzvbJ/94bYb1zOj8eEvzaZcvKe5CKDoNFd/OWZtZ0/4eWFZn6uMpQMndGByAmsyQvATbR75ymg0Oj4bwzrWr79UMsS7pim8EoiLvRg9dQjCqxd4olNmvZyODd8xm3LxnuYigKLTXP3lmLX+QO/TJhdfLN/SLlUOsx8V4iMX8r++ZOniK7Ztm10K4K6uLp+Q1AOSJK8Asclmc0TxeAmbyDZR2r2C3S1d05KjieFuxxqMFTlGAEXHMdTNVVEg3P+kYRj3w+5S5WzEXnuBeDjUOnrlb112+datWyuTnU/XWOoP9f6XaYqNcBLZzqtFYQu+6KBeEh14xdLy+QN70/HV8HVzkUNrZyKAojMToQv091Bk4Ae6bjxYuaUNOGwRsixiGNqRTDp5RS2IeoKRR3XOHyq6V1i26Eh0UlcmfbDER5Iwrk0mk/laysd73U8ARcf9fdQQC8N9G/9C0/Rv264K1S6IfUPJL5MjQ1fXYmBHd+CzkqxsNTkn1HYYJVNEx/ZcZ4yoinxa6NLKRGL7r2opH+91PwEUHff3UUMs7O3b+GAun/9BuUNmyZBShk+ZSf+diA2urMXArnB4JRHsACFE5VxMeb0qlQOiIzFq5k5lb3r11dSbtZSP97qfAIqO+/uoIRaGIxu+mi8U/r7aQnJJdBRJfjs+vHtVLQaGw+G2nC4+lGR5MbxUwUyntKYD5UBwMF3XCaNUSDLpHhkcTNdSPt7rfgIoOu7vo4ZYGOwd+HKhUPin6XJVge+VR1UPxgZ32k6hs70gSPu4Zr4rSfKlMIsSFp0iOvB6BbtXEK+noOd/fyyV2jbbsvG+5iCAotMc/eS4lcHwwBfzhfzTTJ50ziw3AnavfD7Pa0O7dtxci3EQIMzbtvQNwzSu58IiTJKniE7pBDT4X6kez73pWPRfaikf73U/ARQd9/dRQywMRTbcm8vlnp1WdCxBWn2+9ODOVzprNJCFeje8ki3k+hiTzlrTKYW3YLClzsXX947Gn6ixfLzd5QRQdFzeQY0yL7x+4K5sPv8CCEPlVZyNWKTF17IruvMXfbXaGAj2Pa4Z2teEZRFJls88DjvntgMo7Mjbu1v0e+mR4e/UWj7e724CKDru7p+GWRfq37g5l83+ZFrRsUB0vC9Hd22v2VUh1Lv+mwXN+D6FmU55nGRIY06LhxHh9U2R2BPx4ejXGwYBK64LARSdumBt/kKDfRu25HO5F6uJDrROCE68Hs9zscGdX6i1tYFA7waL0m0mF7Q8tIV9RtD2Ords3y5VlreODO3eUmv5eL+7CaDouLt/GmbdjKLDOQTa+seR6K6v1mpkT8/66wmz9hV0wyOVLVSXXq/gwLPgtqjtGh7cWfPrW6324P3OEkDRcZZ309RWEh1JkqfESIYGwJoOzHRafL7vD+/e8ae1NmpgYKD1xKncIcqkK2BL/kzMHoibTCkcDLRFR5alVHxosKvW8vF+dxNA0XF3/zTMunPNdIquCpR4ZOXh2NCuOUX36/aHxyzG1nDBzziUQk4scLuAM0CweyUx9noiFl3TMAhYcV0IoOjUBWvzFxrs7dtS0PUXKWVnNQZi3uRyWaIqngfT8ehjc2ltR1dgB2FSn517b+KyX6+YvXllX9w0Du1Jxm+YS/n4jHsJoOi4t28aallPpH+zrmk/KWXjPNsYeBUSD4zGYk/NxdD+jZt+dOz4sS8pqjr5eiWKKWlgFgWuED6P+v7I0OBVcykfn3EvARQd9/ZNQy0riY6dmopNne2UzulIsvz55NDu5+diaDDS/1Aul3+USdLk6xWlxBCc+FSVmIZBTF3/v7YWz4poNFqYSx34jDsJoOi4s18abpU/vP4u0zBegPCk1YJ4QbhR09A3jSZHfj4XY/3+4BZuWS9SO70wnM+BFWrIqMWJTIuLy8ISJ0zCbxyLx4/MpQ58xp0EUHTc2S8Nt6onFLnbMM0fTys6EiNC03tTqZHoXIwNh/t6CnohRuwDgtQWHUrg35xIkCm9eOq5QE3t91IpDG8xF8ZufQZFx60902C7ugPhe7gQz5EqC8kgCLIsC8G17tTIyJxCTwSDA1dKCjmc1zQV6uBwMtliEJCdUJj62GFSmWBcdCYSQ3sajAOrX0ACKDoLCPN8Kmom0VEU2dR0fvPeRPSNubQbgrQTpuwThKwEdwgTMkPAHOeM6EBYVEKEqW0cTSZfmUsd+Iw7CaDouLNfGm7VuUQHjJMkKSe07I2pVOrduRrb6Q9u50L0S7Jiz3RKr1dsImQynNcRhvH5vaPJOS1Wz9UufK6+BFB06su3aUs/l+jYKYGFOG7kT1+fyWRmlWivGoguf/ApQcgflmY6jMr2mk5RdCzb6dPi1p/sSY/8bdOCRMPPIoCig4OiKoFziQ44Y0pMOkJ5YeV8sjV0+UPfsij5q9KaDoiOsMypoiP49/akEhje4jwapyg651FnLmRTZprpaFrhnVfTCYiPPOe8VN2BwO26If5dVtQzC8mEiimiIyzxxN5kHMNbLGTnNrgsFJ0Gd4Bbqy+KjvVctWwQsHvFKH0jNRKFZHhzvjp7ejtMU0+B6EB+Lcv2gZgqOpYQz+xJxe+bj7jN2UB8sC4EUHTqgrX5C+0OrL/H5OI5+2AghQSek0OlmGvPSqVHhublAe73964S1HyLUIlAOhomKURQQcAHC2oT8B0l21LxodvgY/NTxRYAARQdHAdVCQTDA3fl8toLqqoQbhlVRIfvTI/E+ueDLxwOX6Z6fB8eO3mKeVQv0QyTMIXZolPMOQwzKim27PKLe2tIXTwfk/BZBwig6DgAuRmrCEX679Q146e6wYmigntC2Uyn+GlrcmRoXlH94KyO6vUdzBX05bIE4gZncyzb1wsWqy1hEUWSXi/kTq7NZDKgfHidBwRQdM6DTqxHEwKB3k+bnP8cJsOw1GJPiiF28URQdomyHyVig1+eb93+QGibwcVGyH5FbMfSCdGBLHyWRRRF2X/s6JFbDh48qM+3LnzeHQRQdNzRD66zYt06/y2KKicti8oQLB3SNJSCqMOajqLIfxMb3PXQfA2/pbPzrxXF+2eQMn1KvOSJNR2v6tmfHT/WjjOd+ZJ2z/MoOu7pCzdZQtes6VipeuTtlkWWMwVcMCfDWzBw9jSNb6QSscfna3QoEro7lzf+VZZUyou7YvYevK1z4GnO+dvCzPszmU3HyOYDlGzdCqvaeDUxARSdJu68epi+evXNQUlRPq1r2v26rv+Gx+MlVGYE1lwURSmmhyEWUbzybYnBwf+crw1dXV03CCbtVxSPDBk/uWGCM+lEHGZBTp44ZbW2eI4valu8gxORikV3zilS4XztxOcXjgCKzsKxbLqSNm/eLO07dGjlktbFN/laW+80DGOloRm/I8uy7+jRo/aCri0y3Cxm4pz4vLitVRi6dc3YWOK9+Tba7/cvEkw6aBh8GZxMZqQYNdA0OTEM0xYfhUnkNz91MSkUCtlFi1vfpkz66OTJkz80tdxYJpP55XxtwOedJYCi4yxvV9QGu0bZbPabnJDPEKasyefzdNGixWTRokXk+PHjRJUVMj4+fsZWiRJ7Z6l0+TyeT1pblFXJZPLYQjRobTAYzJ/K7hCWpZp6UWggNjOsWcMAbWtpJYuXtJGjR39FlixZQk6NnyaGaRJZksYLmpb2yvJTXq/yEq77LERv1L8MFJ36M3ZdDatX39yVzZ5OtLS1EdgSF8ICr3H7D2YZ9uwG1lcmtq5pMX6O/V2hkCctLa0/O3jgtdsXqmHtmza1nHjr0KuyJK0SVCKKrNp2gD0miIssF7fQi7tZdsphyEihKLJ9X2urlzNKrhobG8MIgwvVKXUsB0WnjnDdWvSqVasWeTy+nceOHV+nenz2f+5S7ikuBMwgzpgO/7ntmH52fiphtbS0HCIKvWPf3r2HFrJ9q1evvoNz/qSmi0vgtQouVVUJxFCGHFhwgfDAZ0vwMwLJuSkuWrrk2YuXXvRANBotPoiXqwmg6Li6e+pn3FVXrV7a0mL9LpOVG1RZWcw5b+Oce4ngEpWYSalkMkayhNATOhcfM5l9TJk4pp0+/cHhw4dP1cOya6+99lOK0nKpLEsXM0W+nOvGZYywVkGpV3CuWFTIMlO44lE0YZpZ0zQ+olQ6UCic3n/48GGtHjZhmQtPAEVn4ZliiUgACZyDAIoODg8kgAQcJYCi4yhurAwJIAEUHRwDSAAJOEoARcdR3FgZEkACKDo4BpAAEnCUAIqOo7ixMiSABFB0cAwgASTgKAEUHUdxY2VIAAmg6OAYQAJIwFECKDqO4sbKkAASQNHBMYAEkICjBFB0HMWNlSEBJICig2MACSABRwmg6DiKGytDAkgARQfHABJAAo4SQNFxFDdWhgSQAIoOjgEkgAQcJYCi4yhurAwJIAEUHRwDSAAJOEoARcdR3FgZEkACKDo4BpAAEnCUAIqOo7ixMiSABFB0cAwgASTgKAEUHUdxY2VIAAmg6OAYQAJIwFECKDqO4sbKkAASQNHBMYAEkICjBFB0HMWNlSEBJICig2MACSABRwmg6DiKGytDAkgARQfHABJAAo4SQNFxFDdWhgSQAIoOjgEkgAQcJYCi4yhurAwJIAEUHRwDSAAJOEoARcdR3FgZEkACKDo4BpAAEnCUAIqOo7ixMiSABFB0cAwgASTgKAEUHUdxY2VIAAmg6OAYQAJIwFECKDqO4sbKkAASQNHBMYAEkICjBFB0HMWNlSEBJPD/sIS2dr3/B5UAAAAASUVORK5CYII=;" parent="1" vertex="1">
          <mxGeometry x="320" y="121" width="179" height="179" as="geometry" />
        </mxCell>
        <mxCell id="Qqs0DQ55uYX1ZCEMWNZK-6" value="Saya adalah seorang front end designer dengan pengalaman belajar bahasa pemrograman" style="rounded=1;whiteSpace=wrap;html=1;align=left;strokeColor=none;fontSize=11;fillColor=#99CCFF;fontFamily=Comic Sans MS;" parent="1" vertex="1">
          <mxGeometry x="45" y="210" width="315" height="30" as="geometry" />
        </mxCell>
        <mxCell id="Qqs0DQ55uYX1ZCEMWNZK-7" value="&lt;font color=&quot;#000000&quot;&gt;Selengkapnya&lt;/font&gt;" style="html=1;shadow=0;dashed=0;shape=mxgraph.bootstrap.rrect;rSize=5;fontSize=8;fontColor=#1CA5B8;strokeColor=#000000;fillColor=none;" parent="1" vertex="1">
          <mxGeometry x="50" y="243" width="60" height="20" as="geometry" />
        </mxCell>
        <mxCell id="Qqs0DQ55uYX1ZCEMWNZK-8" value="" style="rounded=1;whiteSpace=wrap;html=1;labelBackgroundColor=#000000;fillColor=#99CCFF;" parent="1" vertex="1">
          <mxGeometry x="-1" y="300" width="580" height="150" as="geometry" />
        </mxCell>
        <mxCell id="Qqs0DQ55uYX1ZCEMWNZK-9" value="Pendidikan" style="rounded=1;whiteSpace=wrap;html=1;align=left;strokeColor=none;fontSize=20;fillColor=#99CCFF;fontFamily=Comic Sans MS;" parent="1" vertex="1">
          <mxGeometry x="234" y="310" width="110" height="30" as="geometry" />
        </mxCell>
        <mxCell id="Qqs0DQ55uYX1ZCEMWNZK-10" value="1. MI Nasa&amp;nbsp; 2005 - 2011&lt;br&gt;2. Mts Nasa 2011 - 2014&lt;br&gt;3. SMAN 1 GAPURA 2014 - 2017&lt;br&gt;4. S1 Universitas Trunojoyo Madura" style="rounded=1;whiteSpace=wrap;html=1;align=left;strokeColor=none;fontSize=11;fillColor=#99CCFF;fontFamily=Comic Sans MS;" parent="1" vertex="1">
          <mxGeometry x="30" y="340" width="370" height="80" as="geometry" />
        </mxCell>
        <mxCell id="Qqs0DQ55uYX1ZCEMWNZK-11" value="" style="rounded=1;whiteSpace=wrap;html=1;labelBackgroundColor=#000000;fillColor=#99CCFF;" parent="1" vertex="1">
          <mxGeometry y="460" width="580" height="150" as="geometry" />
        </mxCell>
        <mxCell id="Qqs0DQ55uYX1ZCEMWNZK-12" value="Pengalaman Bekerja" style="rounded=1;whiteSpace=wrap;html=1;align=left;strokeColor=none;fontSize=20;fillColor=#99CCFF;fontFamily=Comic Sans MS;" parent="1" vertex="1">
          <mxGeometry x="197" y="470" width="186" height="30" as="geometry" />
        </mxCell>
        <mxCell id="Qqs0DQ55uYX1ZCEMWNZK-13" value="1. Anggota Auditor MRI&lt;br&gt;2. Admin PT. QNQ Teknik Indonesia" style="rounded=1;whiteSpace=wrap;html=1;align=left;strokeColor=none;fontSize=11;fillColor=#99CCFF;fontFamily=Comic Sans MS;" parent="1" vertex="1">
          <mxGeometry x="30" y="510" width="370" height="50" as="geometry" />
        </mxCell>
        <mxCell id="jIQRRITLZwEwxtKSl1px-1" value="" style="rounded=1;whiteSpace=wrap;html=1;labelBackgroundColor=#000000;fillColor=#99CCFF;" parent="1" vertex="1">
          <mxGeometry y="620" width="580" height="150" as="geometry" />
        </mxCell>
        <mxCell id="jIQRRITLZwEwxtKSl1px-2" value="Keahlian" style="rounded=1;whiteSpace=wrap;html=1;align=left;strokeColor=none;fontSize=20;fillColor=#99CCFF;fontFamily=Comic Sans MS;" parent="1" vertex="1">
          <mxGeometry x="247.5" y="630" width="85" height="30" as="geometry" />
        </mxCell>
        <mxCell id="jIQRRITLZwEwxtKSl1px-3" value="1. Front end designer&lt;br&gt;2. Ms Power Point&lt;br&gt;3. Ms. Word&lt;br&gt;4. Ms excel" style="rounded=1;whiteSpace=wrap;html=1;align=left;strokeColor=none;fontSize=11;fillColor=#99CCFF;fontFamily=Comic Sans MS;" parent="1" vertex="1">
          <mxGeometry x="30" y="670" width="370" height="50" as="geometry" />
        </mxCell>
        <mxCell id="Kbbv4H1bGbjPW1eV8sFb-1" value="" style="rounded=1;whiteSpace=wrap;html=1;labelBackgroundColor=#000000;fillColor=#99CCFF;" vertex="1" parent="1">
          <mxGeometry x="-1" y="780" width="580" height="150" as="geometry" />
        </mxCell>
        <mxCell id="Kbbv4H1bGbjPW1eV8sFb-2" value="Portofolio Workshop" style="rounded=1;whiteSpace=wrap;html=1;align=left;strokeColor=none;fontSize=20;fillColor=#99CCFF;fontFamily=Comic Sans MS;" vertex="1" parent="1">
          <mxGeometry x="188.25" y="790" width="203.5" height="30" as="geometry" />
        </mxCell>
        <mxCell id="Kbbv4H1bGbjPW1eV8sFb-3" value="1. Pelatihan website pemula (CAKAP)" style="rounded=1;whiteSpace=wrap;html=1;align=left;strokeColor=none;fontSize=11;fillColor=#99CCFF;fontFamily=Comic Sans MS;" vertex="1" parent="1">
          <mxGeometry x="30" y="830" width="370" height="50" as="geometry" />
        </mxCell>
        <mxCell id="Kbbv4H1bGbjPW1eV8sFb-4" value="" style="rounded=0;whiteSpace=wrap;html=1;strokeColor=none;" vertex="1" parent="1">
          <mxGeometry x="-10" y="940" width="600" height="90" as="geometry" />
        </mxCell>
        <mxCell id="Kbbv4H1bGbjPW1eV8sFb-6" value="" style="rounded=0;whiteSpace=wrap;html=1;" vertex="1" parent="1">
          <mxGeometry x="-10" y="1030" width="600" height="40" as="geometry" />
        </mxCell>
        <mxCell id="Kbbv4H1bGbjPW1eV8sFb-7" value="@ 2023, Quraisyi" style="rounded=1;whiteSpace=wrap;html=1;align=left;strokeColor=none;fontSize=11;fillColor=#FFFFFF;fontFamily=Comic Sans MS;" vertex="1" parent="1">
          <mxGeometry x="242.63" y="1045" width="92.75" height="10" as="geometry" />
        </mxCell>
        <mxCell id="Kbbv4H1bGbjPW1eV8sFb-8" value="&lt;b&gt;Quraisyi&lt;/b&gt;&lt;br&gt;&lt;br&gt;&lt;div style=&quot;&quot;&gt;&lt;span style=&quot;background-color: initial;&quot;&gt;Front end designer&lt;/span&gt;&lt;/div&gt;" style="rounded=0;whiteSpace=wrap;html=1;align=left;fontFamily=Verdana;strokeColor=none;" vertex="1" parent="1">
          <mxGeometry x="24" y="948" width="120" height="60" as="geometry" />
        </mxCell>
        <mxCell id="Kbbv4H1bGbjPW1eV8sFb-9" value="&lt;b&gt;About&lt;/b&gt;&lt;br&gt;&lt;br&gt;&lt;div style=&quot;&quot;&gt;Saya adalah seorang Front end designer&lt;/div&gt;" style="rounded=0;whiteSpace=wrap;html=1;align=left;fontFamily=Verdana;strokeColor=none;" vertex="1" parent="1">
          <mxGeometry x="163" y="961" width="155" height="45" as="geometry" />
        </mxCell>
        <mxCell id="Kbbv4H1bGbjPW1eV8sFb-10" value="&lt;b&gt;Contact&lt;/b&gt;&lt;br&gt;&lt;br&gt;&lt;div style=&quot;&quot;&gt;Jl. Raya Gapura Sumenep&lt;/div&gt;" style="rounded=0;whiteSpace=wrap;html=1;align=left;fontFamily=Verdana;strokeColor=none;" vertex="1" parent="1">
          <mxGeometry x="305" y="962" width="155" height="45" as="geometry" />
        </mxCell>
        <mxCell id="Kbbv4H1bGbjPW1eV8sFb-11" value="&lt;b&gt;Social Media&lt;/b&gt;&lt;br&gt;&lt;br&gt;&lt;div style=&quot;&quot;&gt;Instagram : quraisyi&lt;/div&gt;&lt;div style=&quot;&quot;&gt;facebook : quraisyi&lt;/div&gt;&lt;div style=&quot;&quot;&gt;twitter : quraisyi&lt;/div&gt;" style="rounded=0;whiteSpace=wrap;html=1;align=left;fontFamily=Verdana;strokeColor=none;" vertex="1" parent="1">
          <mxGeometry x="440" y="970" width="130" height="45" as="geometry" />
        </mxCell>
      </root>
    </mxGraphModel>
  </diagram>
</mxfile>
